<svg xmlns="http://www.w3.org/2000/svg" viewBox="0 0 287.89 278.45"><defs><style>.cls-1,.cls-14{fill:#59539f;}.cls-1{opacity:0.7;}.cls-16,.cls-2,.cls-3,.cls-4{fill:#fff;}.cls-13,.cls-15,.cls-2,.cls-3{stroke:#59539f;}.cls-10,.cls-11,.cls-12,.cls-13,.cls-15,.cls-16,.cls-18,.cls-19,.cls-2,.cls-3,.cls-6,.cls-9{stroke-miterlimit:10;}.cls-2{stroke-width:0.93px;}.cls-3{stroke-width:0.91px;}.cls-5{fill:#91c020;}.cls-10,.cls-11,.cls-12,.cls-13,.cls-15,.cls-18,.cls-19,.cls-6,.cls-9{fill:none;}.cls-16,.cls-18,.cls-19,.cls-6,.cls-9{stroke:#1d1d1b;}.cls-6{stroke-width:0.68px;}.cls-7{fill:#1d1d1b;}.cls-8{fill:#d3d3d3;opacity:0.5;}.cls-9{stroke-width:0.56px;}.cls-10,.cls-11,.cls-12{stroke:#7c7c7c;}.cls-10,.cls-11,.cls-12,.cls-19{stroke-width:0.5px;}.cls-11{stroke-dasharray:2.61 1.57;}.cls-12{stroke-dasharray:2.57 1.54;}.cls-13{stroke-width:0.96px;}.cls-16,.cls-18{stroke-width:0.8px;}.cls-17{opacity:0.3;}</style></defs><g id="Layer_2" data-name="Layer 2"><g id="Laag_1" data-name="Laag 1"><rect class="cls-1" x="8.83" y="-7.67" width="88.2" height="103.54" rx="12" transform="translate(7.67 97.03) rotate(-90)"/><rect class="cls-1" x="193.18" y="90.72" width="88.2" height="103.54" rx="12" transform="translate(93.63 379.77) rotate(-90)"/><rect class="cls-2" x="138.33" y="40.48" width="68.13" height="219.05" rx="12" transform="translate(21.23 322.4) rotate(-90)"/><rect class="cls-3" x="111.87" y="-84.83" width="66.06" height="274.05" rx="12" transform="translate(91.54 197.09) rotate(-90)"/><path class="cls-4" d="M9.24,6.29a10.66,10.66,0,0,1,2-.17,3.32,3.32,0,0,1,2.34.66,2,2,0,0,1,.64,1.54,2.13,2.13,0,0,1-1.53,2.06v0a2,2,0,0,1,1.19,1.63,13.59,13.59,0,0,0,.62,2.22H13.42a11.07,11.07,0,0,1-.54-1.93c-.24-1.12-.67-1.54-1.61-1.58h-1v3.51h-1Zm1,3.68h1.07c1.11,0,1.82-.61,1.82-1.53s-.75-1.5-1.86-1.51a4.3,4.3,0,0,0-1,.09Z" transform="translate(-1.16)"/><path class="cls-4" d="M16.29,11.56a1.86,1.86,0,0,0,2,2,3.76,3.76,0,0,0,1.61-.3l.18.76a4.67,4.67,0,0,1-1.93.36,2.69,2.69,0,0,1-2.85-2.93c0-1.75,1-3.13,2.72-3.13a2.46,2.46,0,0,1,2.4,2.73,4.36,4.36,0,0,1,0,.5Zm3.1-.76a1.5,1.5,0,0,0-1.47-1.71,1.74,1.74,0,0,0-1.61,1.71Z" transform="translate(-1.16)"/><path class="cls-4" d="M21.83,14.27v-5H21V8.46h.82V8.19a2.75,2.75,0,0,1,.67-2,2,2,0,0,1,1.41-.54,2.32,2.32,0,0,1,.9.17l-.14.81A1.62,1.62,0,0,0,24,6.47c-.9,0-1.13.79-1.13,1.68v.31h1.4v.81h-1.4v5Z" transform="translate(-1.16)"/><path class="cls-4" d="M25.65,11.56a1.86,1.86,0,0,0,2,2,3.76,3.76,0,0,0,1.61-.3l.18.76a4.67,4.67,0,0,1-1.93.36,2.69,2.69,0,0,1-2.85-2.93c0-1.75,1-3.13,2.72-3.13a2.46,2.46,0,0,1,2.4,2.73,4.36,4.36,0,0,1,0,.5Zm3.1-.76a1.5,1.5,0,0,0-1.47-1.71,1.74,1.74,0,0,0-1.61,1.71Z" transform="translate(-1.16)"/><path class="cls-4" d="M31.08,10.27c0-.68,0-1.27,0-1.81H32L32,9.6H32a1.74,1.74,0,0,1,1.6-1.27.91.91,0,0,1,.3,0v1a1.79,1.79,0,0,0-.36,0,1.47,1.47,0,0,0-1.41,1.35,3.52,3.52,0,0,0-.05.49v3.1h-1Z" transform="translate(-1.16)"/><path class="cls-4" d="M35.47,11.56a1.86,1.86,0,0,0,2,2,3.8,3.8,0,0,0,1.61-.3l.18.76a4.67,4.67,0,0,1-1.93.36,2.7,2.7,0,0,1-2.86-2.93c0-1.75,1-3.13,2.72-3.13a2.46,2.46,0,0,1,2.4,2.73,4.92,4.92,0,0,1,0,.5Zm3.09-.76A1.49,1.49,0,0,0,37.1,9.09a1.75,1.75,0,0,0-1.62,1.71Z" transform="translate(-1.16)"/><path class="cls-4" d="M40.89,10c0-.6,0-1.09,0-1.57h.93l.06,1h0a2.12,2.12,0,0,1,1.91-1.09c.81,0,2.06.48,2.06,2.47v3.47H44.78V10.92c0-.93-.35-1.71-1.34-1.71A1.5,1.5,0,0,0,42,10.28a1.55,1.55,0,0,0-.07.5v3.49H40.89Z" transform="translate(-1.16)"/><path class="cls-4" d="M51.69,14.05a3.78,3.78,0,0,1-1.67.34,2.76,2.76,0,0,1-2.89-3,3,3,0,0,1,3.12-3.08,3.61,3.61,0,0,1,1.47.3l-.24.82a2.42,2.42,0,0,0-1.23-.28,2,2,0,0,0-2,2.2,2,2,0,0,0,2,2.17,3,3,0,0,0,1.29-.29Z" transform="translate(-1.16)"/><path class="cls-4" d="M53.45,11.56a1.85,1.85,0,0,0,2,2,3.75,3.75,0,0,0,1.6-.3l.18.76a4.63,4.63,0,0,1-1.93.36,2.7,2.7,0,0,1-2.85-2.93c0-1.75,1-3.13,2.72-3.13a2.46,2.46,0,0,1,2.4,2.73,2.85,2.85,0,0,1,0,.5Zm3.09-.76a1.5,1.5,0,0,0-1.46-1.71,1.74,1.74,0,0,0-1.62,1.71Z" transform="translate(-1.16)"/><path class="cls-4" d="M66.43,5.75v7c0,.51,0,1.1,0,1.5h-.94l0-1h0a2.16,2.16,0,0,1-2,1.14c-1.41,0-2.49-1.19-2.49-3,0-1.93,1.19-3.12,2.61-3.12a2,2,0,0,1,1.75.89h0V5.75Zm-1.06,5.08a1.68,1.68,0,0,0-.05-.45A1.54,1.54,0,0,0,63.8,9.16c-1.09,0-1.74,1-1.74,2.24s.58,2.15,1.72,2.15a1.59,1.59,0,0,0,1.54-1.26,1.71,1.71,0,0,0,.05-.46Z" transform="translate(-1.16)"/><path class="cls-4" d="M71.4,14.27l-.09-.73h0a2.19,2.19,0,0,1-1.78.86,1.65,1.65,0,0,1-1.77-1.67c0-1.4,1.24-2.17,3.49-2.16v-.12A1.2,1.2,0,0,0,69.9,9.11a2.9,2.9,0,0,0-1.51.43l-.24-.69a3.51,3.51,0,0,1,1.9-.52c1.78,0,2.21,1.21,2.21,2.37v2.18a7.44,7.44,0,0,0,.1,1.39Zm-.16-3c-1.15,0-2.46.18-2.46,1.31a.94.94,0,0,0,1,1,1.45,1.45,0,0,0,1.4-1,1,1,0,0,0,.06-.34Z" transform="translate(-1.16)"/><path class="cls-4" d="M75.19,6.8V8.46H76.7v.81H75.19V12.4c0,.72.2,1.12.79,1.12a2.15,2.15,0,0,0,.61-.07l0,.79a2.44,2.44,0,0,1-.94.15,1.47,1.47,0,0,1-1.14-.45,2.18,2.18,0,0,1-.4-1.51V9.27h-.9V8.46h.9V7.07Z" transform="translate(-1.16)"/><path class="cls-4" d="M81.1,14.27,81,13.54h0a2.16,2.16,0,0,1-1.77.86,1.66,1.66,0,0,1-1.78-1.67c0-1.4,1.25-2.17,3.49-2.16v-.12A1.19,1.19,0,0,0,79.6,9.11a2.93,2.93,0,0,0-1.51.43l-.24-.69a3.55,3.55,0,0,1,1.91-.52C81.54,8.33,82,9.54,82,10.7v2.18a8.47,8.47,0,0,0,.09,1.39Zm-.15-3c-1.15,0-2.46.18-2.46,1.31a.93.93,0,0,0,1,1,1.45,1.45,0,0,0,1.41-1,1.35,1.35,0,0,0,.06-.34Z" transform="translate(-1.16)"/><path class="cls-4" d="M83.53,13.19a2.79,2.79,0,0,0,1.39.42c.77,0,1.13-.39,1.13-.87S85.75,12,85,11.68c-1-.38-1.54-.95-1.54-1.65a1.8,1.8,0,0,1,2-1.7,2.9,2.9,0,0,1,1.42.36l-.26.77a2.22,2.22,0,0,0-1.19-.34c-.62,0-1,.36-1,.79s.35.7,1.1,1c1,.38,1.53.88,1.53,1.75s-.79,1.74-2.17,1.74a3.27,3.27,0,0,1-1.63-.4Z" transform="translate(-1.16)"/><path class="cls-4" d="M89,11.56a1.86,1.86,0,0,0,2,2,3.76,3.76,0,0,0,1.61-.3l.18.76a4.67,4.67,0,0,1-1.93.36A2.69,2.69,0,0,1,88,11.46c0-1.75,1-3.13,2.72-3.13a2.46,2.46,0,0,1,2.4,2.73,4.36,4.36,0,0,1,0,.5Zm3.1-.76a1.5,1.5,0,0,0-1.47-1.71A1.76,1.76,0,0,0,89,10.8Z" transform="translate(-1.16)"/><path class="cls-4" d="M95.71,6.8V8.46h1.51v.81H95.71V12.4c0,.72.2,1.12.79,1.12a2.15,2.15,0,0,0,.61-.07l0,.79a2.44,2.44,0,0,1-.94.15,1.47,1.47,0,0,1-1.14-.45,2.13,2.13,0,0,1-.4-1.51V9.27h-.9V8.46h.9V7.07Z" transform="translate(-1.16)"/><path class="cls-4" d="M192.2,110.79a3.68,3.68,0,0,0,1.87.53c1.07,0,1.7-.57,1.7-1.38s-.44-1.19-1.53-1.61c-1.32-.47-2.13-1.15-2.13-2.29a2.33,2.33,0,0,1,2.61-2.2,3.72,3.72,0,0,1,1.79.4l-.29.85a3.24,3.24,0,0,0-1.53-.38c-1.11,0-1.53.66-1.53,1.21,0,.75.49,1.13,1.61,1.56,1.37.53,2.06,1.19,2.06,2.37s-.92,2.33-2.83,2.33a4.13,4.13,0,0,1-2.06-.52Z" transform="translate(-1.16)"/><path class="cls-4" d="M199.4,104.62a.65.65,0,1,1-1.3,0,.64.64,0,0,1,.65-.66A.63.63,0,0,1,199.4,104.62Zm-1.17,7.44v-5.81h1.05v5.81Z" transform="translate(-1.16)"/><path class="cls-4" d="M201,107.83c0-.6,0-1.1,0-1.58h.93l.06,1h0a2.13,2.13,0,0,1,1.92-1.09c.8,0,2,.48,2,2.47v3.47h-1.06v-3.35c0-.93-.35-1.71-1.34-1.71a1.5,1.5,0,0,0-1.42,1.08,1.45,1.45,0,0,0-.07.49v3.49H201Z" transform="translate(-1.16)"/><path class="cls-4" d="M212.7,106.25c0,.42,0,.89,0,1.6v3.37a3.35,3.35,0,0,1-.83,2.65,3.06,3.06,0,0,1-2.11.7,3.76,3.76,0,0,1-1.93-.48l.26-.81a3.31,3.31,0,0,0,1.71.46c1.08,0,1.87-.57,1.87-2v-.65h0a2.06,2.06,0,0,1-1.84,1,2.61,2.61,0,0,1-2.48-2.84,2.79,2.79,0,0,1,2.62-3.08,1.92,1.92,0,0,1,1.81,1h0l.05-.88Zm-1.1,2.3a1.44,1.44,0,0,0-.06-.48,1.5,1.5,0,0,0-1.47-1.12c-1,0-1.73.85-1.73,2.19,0,1.14.58,2.09,1.72,2.09a1.54,1.54,0,0,0,1.46-1.08,1.81,1.81,0,0,0,.08-.56Z" transform="translate(-1.16)"/><path class="cls-4" d="M214.4,103.54h1.06v8.52H214.4Z" transform="translate(-1.16)"/><path class="cls-4" d="M217.82,109.35a1.86,1.86,0,0,0,2,2,3.8,3.8,0,0,0,1.61-.3l.18.76a4.67,4.67,0,0,1-1.93.36,2.7,2.7,0,0,1-2.86-2.93c0-1.75,1-3.13,2.73-3.13a2.47,2.47,0,0,1,2.4,2.74,4.35,4.35,0,0,1,0,.49Zm3.1-.76a1.5,1.5,0,0,0-1.47-1.71,1.76,1.76,0,0,0-1.62,1.71Z" transform="translate(-1.16)"/><path class="cls-4" d="M226,108.43v.77h-3v-.77Z" transform="translate(-1.16)"/><path class="cls-4" d="M231.62,111.84a3.81,3.81,0,0,1-1.67.34,2.76,2.76,0,0,1-2.89-3,3,3,0,0,1,3.12-3.09,3.56,3.56,0,0,1,1.46.3l-.24.82a2.45,2.45,0,0,0-1.22-.28,2,2,0,0,0-2.05,2.2,2,2,0,0,0,2,2.17,3,3,0,0,0,1.29-.29Z" transform="translate(-1.16)"/><path class="cls-4" d="M233.37,109.35a1.86,1.86,0,0,0,2,2,3.76,3.76,0,0,0,1.61-.3l.18.76a4.67,4.67,0,0,1-1.93.36,2.69,2.69,0,0,1-2.85-2.93c0-1.75,1-3.13,2.72-3.13a2.47,2.47,0,0,1,2.4,2.74,4.35,4.35,0,0,1,0,.49Zm3.1-.76a1.5,1.5,0,0,0-1.47-1.71,1.74,1.74,0,0,0-1.61,1.71Z" transform="translate(-1.16)"/><path class="cls-4" d="M238.8,103.54h1v8.52h-1Z" transform="translate(-1.16)"/><path class="cls-4" d="M241.63,103.54h1.06v8.52h-1.06Z" transform="translate(-1.16)"/><path class="cls-4" d="M252,103.54v7c0,.52,0,1.1,0,1.5h-.95l-.05-1h0a2.15,2.15,0,0,1-2,1.14c-1.4,0-2.48-1.19-2.48-3,0-1.93,1.18-3.12,2.6-3.12a1.93,1.93,0,0,1,1.75.89h0v-3.47ZM251,108.62a2.35,2.35,0,0,0,0-.45,1.56,1.56,0,0,0-1.53-1.22c-1.09,0-1.74,1-1.74,2.24s.58,2.15,1.72,2.15a1.6,1.6,0,0,0,1.55-1.26,2.19,2.19,0,0,0,0-.46Z" transform="translate(-1.16)"/><path class="cls-4" d="M257,112.06l-.09-.73h0a2.19,2.19,0,0,1-1.78.86,1.65,1.65,0,0,1-1.77-1.67c0-1.4,1.24-2.17,3.49-2.15v-.12a1.2,1.2,0,0,0-1.32-1.35,2.93,2.93,0,0,0-1.51.43l-.24-.69a3.61,3.61,0,0,1,1.91-.52c1.77,0,2.2,1.21,2.2,2.38v2.17a8.4,8.4,0,0,0,.1,1.39Zm-.16-3c-1.15,0-2.46.18-2.46,1.3a.94.94,0,0,0,1,1,1.45,1.45,0,0,0,1.4-1,1,1,0,0,0,.06-.34Z" transform="translate(-1.16)"/><path class="cls-4" d="M260.78,104.59v1.66h1.51v.81h-1.51v3.13c0,.72.2,1.13.79,1.13a2.08,2.08,0,0,0,.61-.08l.05.8a2.67,2.67,0,0,1-.93.14,1.49,1.49,0,0,1-1.14-.44,2.18,2.18,0,0,1-.41-1.52v-3.16h-.9v-.81h.9v-1.39Z" transform="translate(-1.16)"/><path class="cls-4" d="M266.7,112.06l-.09-.73h0a2.19,2.19,0,0,1-1.78.86,1.65,1.65,0,0,1-1.77-1.67c0-1.4,1.24-2.17,3.49-2.15v-.12a1.21,1.21,0,0,0-1.32-1.35,2.9,2.9,0,0,0-1.51.43l-.24-.69a3.6,3.6,0,0,1,1.9-.52c1.78,0,2.21,1.21,2.21,2.38v2.17a7.44,7.44,0,0,0,.1,1.39Zm-.16-3c-1.15,0-2.46.18-2.46,1.3a.94.94,0,0,0,1,1,1.45,1.45,0,0,0,1.4-1,1,1,0,0,0,.06-.34Z" transform="translate(-1.16)"/><path class="cls-4" d="M269.12,111a2.79,2.79,0,0,0,1.39.42c.77,0,1.13-.38,1.13-.86s-.3-.78-1.08-1.07c-1-.37-1.53-1-1.53-1.64a1.79,1.79,0,0,1,2-1.71,2.94,2.94,0,0,1,1.43.36l-.27.77a2.31,2.31,0,0,0-1.19-.34c-.62,0-1,.36-1,.8s.35.69,1.11,1c1,.38,1.52.89,1.52,1.75,0,1-.79,1.74-2.17,1.74a3.3,3.3,0,0,1-1.63-.4Z" transform="translate(-1.16)"/><path class="cls-4" d="M274.6,109.35a1.86,1.86,0,0,0,2,2,3.75,3.75,0,0,0,1.6-.3l.18.76a4.63,4.63,0,0,1-1.93.36,2.69,2.69,0,0,1-2.85-2.93c0-1.75,1-3.13,2.72-3.13a2.46,2.46,0,0,1,2.4,2.74,4.35,4.35,0,0,1,0,.49Zm3.1-.76a1.5,1.5,0,0,0-1.46-1.71,1.74,1.74,0,0,0-1.62,1.71Z" transform="translate(-1.16)"/><path class="cls-4" d="M281.3,104.59v1.66h1.51v.81H281.3v3.13c0,.72.2,1.13.79,1.13a2.08,2.08,0,0,0,.61-.08l.05.8a2.67,2.67,0,0,1-.93.14,1.47,1.47,0,0,1-1.14-.44,2.18,2.18,0,0,1-.41-1.52v-3.16h-.9v-.81h.9v-1.39Z" transform="translate(-1.16)"/><path class="cls-5" d="M136.12,70.17a16.9,16.9,0,0,0,1.61-3.66c1.61-5,1.6-11,1.88-10.94s0,3.35.82,7.34c.28,1.44.52,2.67.77,2.63,1-.14,1.07-20.22,1.41-20.21s.49,22.55.94,22.57.75-14.58,1.14-14.54.32,7.69.67,7.72c.06,0,.16-.26.29-1.61V57.19a8.91,8.91,0,0,1,.19-2c.24,0,.41,8.19.72,8.19s.31-3.69.51-3.68a18.07,18.07,0,0,1,.3,3,19.28,19.28,0,0,0,2.31,7.63" transform="translate(-1.16)"/><path class="cls-5" d="M165.64,70.46c-.11-.72-.26-1.76-.43-3-.81-5.79-1-8-1.26-8-.43,0-.47,6.6-.89,6.6-.22,0-.45-1.74-.61-2.92-.22-1.58-.26-2.65-.33-2.65a18.14,18.14,0,0,0-.13,2.13c-.12,1.79-.32,3.51-.32,3.51h0s-.2-2.93-.24-2.93-.23,2.36-.28,2.64c0,.12-.05.23-.05.23s0,.19-.11.5a8.38,8.38,0,0,1-.37,1.78c-.14,0-.22-1.26-.36-1.26s-.18.48-.21.85c0,.56.07.85-.08.93s-.33,0-.44-.16c-.28-.26-.23-.68-.29-.68s-.24,1.74-.36,1.74a1.48,1.48,0,0,1-.12-.29l-.81,1" transform="translate(-1.16)"/><path class="cls-5" d="M114.31,70a8.58,8.58,0,0,0,3-2.69c1.92-2.85,1-5.62,3-11.34.17-.46.31-.84.41-1.07l.4,1.21c0,.72.1,1.33.14,1.82a36.19,36.19,0,0,0,.47,4.4c.12.6.12.48.27,1.21.38,1.87.42,3,.61,3s.14-.1.26-.62v-.88a.63.63,0,0,0,.07-.12c.22-.4.23-.48.27-.48s.25.59.34,1.41a12.07,12.07,0,0,0,.14,1.56c.12,0,.31-1.42.47-1.41s.11,1.13.27,1.14S124.79,66,125,66s.41,2.9.61,2.9a2.26,2.26,0,0,0,.2-.48L127.13,70" transform="translate(-1.16)"/><line class="cls-6" x1="142.06" y1="73.55" x2="142.06" y2="39.89"/><path class="cls-7" d="M138.23,75.94h-1.85v-.66h4.49v.66H139v5.41h-.79Z" transform="translate(-1.16)"/><path class="cls-7" d="M141.38,80.39a2.76,2.76,0,0,0,1.41.4c.8,0,1.27-.43,1.27-1s-.33-.89-1.15-1.2c-1-.36-1.6-.87-1.6-1.72a1.75,1.75,0,0,1,2-1.65,2.69,2.69,0,0,1,1.35.3l-.22.64a2.38,2.38,0,0,0-1.15-.29c-.83,0-1.15.49-1.15.91s.37.84,1.21,1.17c1,.39,1.55.89,1.55,1.78s-.69,1.75-2.13,1.75a3.17,3.17,0,0,1-1.54-.39Z" transform="translate(-1.16)"/><path class="cls-7" d="M145.82,80.39a2.76,2.76,0,0,0,1.41.4c.8,0,1.26-.43,1.26-1s-.32-.89-1.14-1.2c-1-.36-1.6-.87-1.6-1.72a1.74,1.74,0,0,1,2-1.65,2.67,2.67,0,0,1,1.34.3l-.21.64a2.43,2.43,0,0,0-1.16-.29c-.82,0-1.14.49-1.14.91s.37.84,1.21,1.17c1,.39,1.55.89,1.55,1.78s-.7,1.75-2.13,1.75a3.24,3.24,0,0,1-1.55-.39Z" transform="translate(-1.16)"/><line class="cls-6" x1="141.74" y1="40.34" x2="152.47" y2="40.34"/><polygon class="cls-7" points="151.36 41.97 157.43 40.34 151.36 38.71 151.36 41.97"/><path class="cls-8" d="M114.32,70.15a99.15,99.15,0,0,0,10-.06,10.92,10.92,0,0,0,2.19-.29C137,67.3,140.67,49.9,141.3,46.73a10.17,10.17,0,0,0,1.91,0s0,2.26,0,4.92c-.08,6.14,0,16.43,0,18.52C120.06,70,114.33,70,114.32,70.15Z" transform="translate(-1.16)"/><path class="cls-9" d="M141.3,46.76h0c-.63,3.18-4.29,20.58-14.81,23.08a11.69,11.69,0,0,1-2.19.29" transform="translate(-1.16)"/><polyline class="cls-9" points="139.83 46.76 142.05 46.76 142.03 70.2"/><path class="cls-8" d="M172.11,70.19a99.15,99.15,0,0,1-10-.06,11.69,11.69,0,0,1-2.19-.29c-10.52-2.5-14.18-19.9-14.81-23.08a9.4,9.4,0,0,1-1.91,0s0,2.25,0,4.91c.09,6.14,0,16.43,0,18.53C166.37,70,172.1,70.06,172.11,70.19Z" transform="translate(-1.16)"/><path class="cls-9" d="M145.13,46.8h0c.63,3.18,4.29,20.58,14.81,23.07a10.24,10.24,0,0,0,2.19.29" transform="translate(-1.16)"/><polyline class="cls-9" points="144.27 46.8 142.06 46.8 142.07 70.24"/><line class="cls-10" x1="113.54" y1="69.74" x2="113.54" y2="68.49"/><line class="cls-11" x1="113.54" y1="66.92" x2="113.54" y2="38.42"/><line class="cls-10" x1="113.54" y1="37.64" x2="113.54" y2="36.39"/><line class="cls-10" x1="170.53" y1="69.71" x2="170.53" y2="68.46"/><line class="cls-11" x1="170.53" y1="66.89" x2="170.53" y2="38.39"/><line class="cls-10" x1="170.53" y1="37.61" x2="170.53" y2="36.36"/><line class="cls-10" x1="113.35" y1="36.62" x2="114.6" y2="36.62"/><line class="cls-12" x1="116.14" y1="36.62" x2="168.75" y2="36.62"/><line class="cls-10" x1="169.52" y1="36.62" x2="170.77" y2="36.62"/><path class="cls-7" d="M130.24,30.68v1.91h1.83v.48h-1.83V35h-.52V33.07h-1.83v-.48h1.83V30.68Z" transform="translate(-1.16)"/><path class="cls-7" d="M132.39,35.32l2.26-5.88h.55l-2.27,5.88Z" transform="translate(-1.16)"/><path class="cls-7" d="M137.42,32.54v.53h-2v-.53Z" transform="translate(-1.16)"/><path class="cls-7" d="M139.57,30.39h0l-.92.5-.14-.55,1.15-.61h.61V35h-.69Z" transform="translate(-1.16)"/><path class="cls-7" d="M145.68,32.3c0,1.79-.66,2.78-1.83,2.78s-1.73-1-1.74-2.7.76-2.74,1.83-2.74S145.68,30.63,145.68,32.3Zm-2.86.09c0,1.36.42,2.14,1.07,2.14s1.08-.85,1.08-2.19-.33-2.15-1.07-2.15S142.82,31,142.82,32.39Z" transform="translate(-1.16)"/><path class="cls-7" d="M149.84,32.3c0,1.79-.67,2.78-1.83,2.78s-1.73-1-1.75-2.7.76-2.74,1.83-2.74S149.84,30.63,149.84,32.3Zm-2.86.09c0,1.36.42,2.14,1.07,2.14s1.07-.85,1.07-2.19-.33-2.15-1.07-2.15S147,31,147,32.39Z" transform="translate(-1.16)"/><path class="cls-7" d="M153.14,32.87h0a4.7,4.7,0,0,1,.34-.44l1.16-1.36h.85L154,32.68,155.72,35h-.86l-1.36-1.88-.36.41V35h-.7V29.24h.7Z" transform="translate(-1.16)"/><path class="cls-7" d="M156.34,35c0-.26,0-.66,0-1V29.24h.71V31.7h0a1.48,1.48,0,0,1,1.34-.72,1.76,1.76,0,0,1,1.65,2,1.86,1.86,0,0,1-1.76,2.1,1.41,1.41,0,0,1-1.31-.73h0l0,.64Zm.74-1.57a1.09,1.09,0,0,0,1.1,1.1c.74,0,1.19-.61,1.19-1.51s-.41-1.46-1.17-1.46a1.19,1.19,0,0,0-1.12,1.17Z" transform="translate(-1.16)"/><path class="cls-6" d="M109.74,70.24l66.42-.06" transform="translate(-1.16)"/><path class="cls-13" d="M138.42,201.6h84a10,10,0,0,1,6.17,1.93,19.26,19.26,0,0,1,5.41,6.56" transform="translate(-1.16)"/><path class="cls-14" d="M233.14,208.58l2.32-3.34.12.08.24,6.08c.4,2,.81,3.95,1.21,5.93-1.19-1.63-2.39-3.25-3.59-4.88l-4.35-4.25v-.14Z" transform="translate(-1.16)"/><path class="cls-13" d="M144.69,215.3a18.42,18.42,0,0,1,3.23-7c5.37-7,14.05-6.79,15.34-6.73" transform="translate(-1.16)"/><path class="cls-13" d="M121.19,187.86a18.42,18.42,0,0,0,3.23,7c5.38,7,14.06,6.79,15.35,6.74" transform="translate(-1.16)"/><line class="cls-15" x1="95.17" y1="55" x2="102.53" y2="55"/><path class="cls-14" d="M102.25,55l-1.75-2.89.1-.06,4.7,1.87L110.21,55l-4.91,1.08-4.7,1.86-.1,0Z" transform="translate(-1.16)"/><line class="cls-15" x1="175.34" y1="55" x2="182.69" y2="55"/><path class="cls-14" d="M182.42,55l-1.76-2.89.1-.06,4.7,1.87L190.38,55l-4.92,1.08-4.7,1.86-.1,0Z" transform="translate(-1.16)"/><path class="cls-15" d="M193.09,154.42l-33,0" transform="translate(-1.16)"/><path class="cls-14" d="M161.52,154.41l1.75,2.88-.1.06-4.7-1.86-4.91-1.09,4.91-1.08,4.7-1.86.1,0Z" transform="translate(-1.16)"/><line class="cls-15" x1="81.52" y1="252.64" x2="88.88" y2="252.64"/><path class="cls-14" d="M88.6,252.64l-1.75-2.88.1-.07,4.7,1.87,4.91,1.08-4.91,1.08L87,255.59l-.1-.05Z" transform="translate(-1.16)"/><rect class="cls-16" x="207.81" y="227.24" width="69.73" height="50.81"/><g class="cls-17"><rect class="cls-18" x="207.81" y="227.24" width="69.73" height="50.81"/><line class="cls-18" x1="207.81" y1="269.58" x2="277.54" y2="269.58"/><line class="cls-18" x1="207.81" y1="261.11" x2="277.54" y2="261.11"/><line class="cls-18" x1="207.81" y1="252.64" x2="277.54" y2="252.64"/><line class="cls-18" x1="207.81" y1="244.17" x2="277.54" y2="244.17"/><line class="cls-18" x1="207.81" y1="235.7" x2="277.54" y2="235.7"/><line class="cls-18" x1="265.91" y1="227.24" x2="265.91" y2="278.05"/><line class="cls-18" x1="254.29" y1="227.24" x2="254.29" y2="278.05"/><line class="cls-18" x1="242.67" y1="227.24" x2="242.67" y2="278.05"/><line class="cls-18" x1="231.05" y1="227.24" x2="231.05" y2="278.05"/><line class="cls-18" x1="219.43" y1="227.24" x2="219.43" y2="278.05"/></g><path class="cls-7" d="M209.86,223.28a2,2,0,0,0,1,.3c.55,0,.8-.28.8-.62s-.21-.55-.76-.75c-.74-.27-1.09-.68-1.09-1.17a1.27,1.27,0,0,1,1.42-1.2,2,2,0,0,1,1,.25l-.19.54a1.59,1.59,0,0,0-.84-.23c-.44,0-.69.25-.69.56s.25.49.79.69c.71.28,1.08.63,1.08,1.24s-.57,1.24-1.54,1.24a2.37,2.37,0,0,1-1.16-.28Z" transform="translate(-1.16)"/><path class="cls-7" d="M214.16,218.77a.47.47,0,0,1-.93,0,.45.45,0,0,1,.47-.46A.44.44,0,0,1,214.16,218.77Zm-.83,5.27v-4.11h.74V224Z" transform="translate(-1.16)"/><path class="cls-7" d="M215.32,221c0-.42,0-.77,0-1.11h.66l.05.68h0a1.52,1.52,0,0,1,1.36-.77c.57,0,1.46.34,1.46,1.75V224h-.75v-2.37c0-.66-.25-1.21-.95-1.21a1.06,1.06,0,0,0-1,.76,1.18,1.18,0,0,0-.05.35V224h-.74Z" transform="translate(-1.16)"/><path class="cls-7" d="M223.58,219.93c0,.3,0,.63,0,1.13v2.39a2.38,2.38,0,0,1-.58,1.88,2.21,2.21,0,0,1-1.5.49,2.67,2.67,0,0,1-1.37-.34l.19-.57a2.33,2.33,0,0,0,1.21.32c.76,0,1.32-.4,1.32-1.43v-.46h0a1.46,1.46,0,0,1-1.3.69,1.85,1.85,0,0,1-1.76-2,2,2,0,0,1,1.86-2.18,1.37,1.37,0,0,1,1.28.71h0l0-.62Zm-.78,1.62a1.18,1.18,0,0,0,0-.34,1.08,1.08,0,0,0-1-.79c-.72,0-1.23.61-1.23,1.56s.41,1.48,1.22,1.48a1.08,1.08,0,0,0,1-.77,1.11,1.11,0,0,0,.06-.4Z" transform="translate(-1.16)"/><path class="cls-7" d="M224.78,218h.75v6h-.75Z" transform="translate(-1.16)"/><path class="cls-7" d="M227.21,222.12a1.32,1.32,0,0,0,1.41,1.43,2.72,2.72,0,0,0,1.14-.21l.12.53a3.26,3.26,0,0,1-1.36.26,1.92,1.92,0,0,1-2-2.08,2,2,0,0,1,1.93-2.21,1.74,1.74,0,0,1,1.7,1.93c0,.16,0,.28,0,.35Zm2.19-.53a1.07,1.07,0,0,0-1-1.22,1.25,1.25,0,0,0-1.15,1.22Z" transform="translate(-1.16)"/><path class="cls-7" d="M235.78,223.89a2.76,2.76,0,0,1-1.18.24,2,2,0,0,1-2-2.1,2.09,2.09,0,0,1,2.21-2.19,2.37,2.37,0,0,1,1,.22l-.17.57a1.78,1.78,0,0,0-.87-.19,1.42,1.42,0,0,0-1.45,1.55,1.41,1.41,0,0,0,1.43,1.54,2.25,2.25,0,0,0,.92-.2Z" transform="translate(-1.16)"/><path class="cls-7" d="M237,222.12a1.32,1.32,0,0,0,1.41,1.43,2.68,2.68,0,0,0,1.14-.21l.13.53a3.27,3.27,0,0,1-1.37.26,1.92,1.92,0,0,1-2-2.08,2,2,0,0,1,1.93-2.21,1.74,1.74,0,0,1,1.7,1.93,2.25,2.25,0,0,1,0,.35Zm2.2-.53a1.07,1.07,0,0,0-1-1.22,1.24,1.24,0,0,0-1.15,1.22Z" transform="translate(-1.16)"/><path class="cls-7" d="M240.87,218h.74v6h-.74Z" transform="translate(-1.16)"/><path class="cls-7" d="M242.87,218h.75v6h-.75Z" transform="translate(-1.16)"/><path class="cls-7" d="M244.78,223.28a2,2,0,0,0,1,.3c.55,0,.8-.28.8-.62s-.21-.55-.76-.75c-.74-.27-1.09-.68-1.09-1.17a1.26,1.26,0,0,1,1.42-1.2,2,2,0,0,1,1,.25l-.19.54a1.62,1.62,0,0,0-.84-.23c-.44,0-.69.25-.69.56s.25.49.78.69c.72.28,1.08.63,1.08,1.24s-.56,1.24-1.54,1.24a2.33,2.33,0,0,1-1.15-.28Z" transform="translate(-1.16)"/><path class="cls-7" d="M202.63,275.17c-.43,0-.78,0-1.12,0v-.65l.67,0v0a1.44,1.44,0,0,1-.76-1.3,1.21,1.21,0,0,1,.83-1.16v0a1.65,1.65,0,0,1-.54-.46,1.38,1.38,0,0,1-.29-.91c0-.54.36-1.35,1.79-1.35h2.42V270H203.3c-.79,0-1.27.29-1.27.9a1,1,0,0,0,.68.88,1.38,1.38,0,0,0,.38.06h2.54v.73h-2.47c-.65,0-1.13.29-1.13.86a1,1,0,0,0,.75.93,1.11,1.11,0,0,0,.37.05h2.48v.74Z" transform="translate(-1.16)"/><path class="cls-7" d="M203.54,264.35a2,2,0,0,1,2.18,2,2,2,0,0,1-2.12,2,2,2,0,0,1-2.18-2A2,2,0,0,1,203.54,264.35Zm0,3.27c.9,0,1.58-.52,1.58-1.25s-.67-1.25-1.6-1.25c-.69,0-1.58.35-1.58,1.23S202.8,267.62,203.58,267.62Z" transform="translate(-1.16)"/><path class="cls-7" d="M200.33,262.51h1.18v-1.07h.57v1.07h2.22c.51,0,.8-.15.8-.56a1.56,1.56,0,0,0,0-.44l.56,0a1.83,1.83,0,0,1,.1.66,1.05,1.05,0,0,1-.31.81,1.54,1.54,0,0,1-1.07.29h-2.25v.64h-.57v-.64h-1Z" transform="translate(-1.16)"/><path class="cls-7" d="M200.36,259.76a.47.47,0,0,1,0,.93.46.46,0,0,1-.47-.47A.45.45,0,0,1,200.36,259.76Zm5.27.84h-4.12v-.75h4.12Z" transform="translate(-1.16)"/><path class="cls-7" d="M205.63,258.53h-3.55v.58h-.57v-.58h-.19a2,2,0,0,1-1.44-.47,1.45,1.45,0,0,1-.38-1,1.67,1.67,0,0,1,.12-.63l.58.1a1.1,1.1,0,0,0-.1.47c0,.64.56.8,1.19.8h.22v-1h.57v1h3.55Z" transform="translate(-1.16)"/><path class="cls-7" d="M205.63,252.05l-.52.06v0a1.54,1.54,0,0,1,.61,1.26,1.18,1.18,0,0,1-1.18,1.26c-1,0-1.54-.89-1.53-2.48h-.08a.86.86,0,0,0-1,.94,2,2,0,0,0,.31,1.07l-.49.17a2.55,2.55,0,0,1-.37-1.35c0-1.26.86-1.57,1.68-1.57h1.54a6,6,0,0,0,1-.06Zm-2.1.11c0,.81.13,1.74.93,1.74a.66.66,0,0,0,.71-.71,1,1,0,0,0-.69-1,.67.67,0,0,0-.24,0Z" transform="translate(-1.16)"/><path class="cls-7" d="M205.48,247.29a2.85,2.85,0,0,1,.23,1.19,2,2,0,0,1-2.1,2,2.09,2.09,0,0,1-2.18-2.21,2.49,2.49,0,0,1,.21-1l.58.17a1.75,1.75,0,0,0-.2.86,1.43,1.43,0,0,0,1.56,1.46,1.41,1.41,0,0,0,1.54-1.43,2,2,0,0,0-.21-.92Z" transform="translate(-1.16)"/><path class="cls-7" d="M200.33,245.41h1.18v-1.07h.57v1.07h2.22c.51,0,.8-.15.8-.56a1.56,1.56,0,0,0,0-.44l.56,0a1.79,1.79,0,0,1,.1.66,1.05,1.05,0,0,1-.31.81,1.54,1.54,0,0,1-1.07.29h-2.25v.64h-.57v-.64h-1Z" transform="translate(-1.16)"/><path class="cls-7" d="M200.36,242.66a.47.47,0,0,1,0,.93.46.46,0,0,1-.47-.47A.45.45,0,0,1,200.36,242.66Zm5.27.83h-4.12v-.74h4.12Z" transform="translate(-1.16)"/><path class="cls-7" d="M201.51,241.22l2.32-.81a8.37,8.37,0,0,1,1-.33v0a10.76,10.76,0,0,1-1-.35l-2.32-.79v-.79l4.12,1.62v.71L201.51,242Z" transform="translate(-1.16)"/><path class="cls-7" d="M200.36,236.59a.44.44,0,0,1,.46.47.45.45,0,0,1-.46.45.46.46,0,0,1-.47-.47A.44.44,0,0,1,200.36,236.59Zm5.27.83h-4.12v-.75h4.12Z" transform="translate(-1.16)"/><path class="cls-7" d="M200.33,234.53h1.18v-1.07h.57v1.07h2.22c.51,0,.8-.15.8-.56a1.56,1.56,0,0,0,0-.44l.56,0a1.79,1.79,0,0,1,.1.66,1.05,1.05,0,0,1-.31.81,1.54,1.54,0,0,1-1.07.29h-2.25v.64h-.57v-.64h-1Z" transform="translate(-1.16)"/><path class="cls-7" d="M201.51,232.27l2.44-.9c.27-.1.59-.2.84-.27h0l-.86-.27-2.42-.81v-.79l2.94,1.12a6.16,6.16,0,0,1,2.57,1.41,2.11,2.11,0,0,1,.49.92l-.63.18a2,2,0,0,0-.37-.65,2.2,2.2,0,0,0-.83-.63.74.74,0,0,0-.18-.06.76.76,0,0,0-.19.05l-3.8,1.52Z" transform="translate(-1.16)"/><rect class="cls-4" x="229.54" y="243.27" width="26.26" height="18.74"/><path class="cls-7" d="M235.67,248.12c0-.39,0-.71,0-1h.6l0,.6h0a1.29,1.29,0,0,1,1.18-.69,1.11,1.11,0,0,1,1.07.76h0a1.62,1.62,0,0,1,.42-.5,1.31,1.31,0,0,1,.83-.26c.5,0,1.24.33,1.24,1.64v2.22h-.67v-2.14c0-.72-.26-1.16-.82-1.16a.89.89,0,0,0-.81.62,1.23,1.23,0,0,0-.05.35v2.33H238v-2.26c0-.6-.27-1-.79-1a.93.93,0,0,0-.85.69.91.91,0,0,0,0,.33v2.28h-.67Z" transform="translate(-1.16)"/><path class="cls-7" d="M245.59,249a1.84,1.84,0,0,1-1.88,2A1.79,1.79,0,0,1,241.9,249a1.84,1.84,0,0,1,1.87-2A1.79,1.79,0,0,1,245.59,249Zm-3,0c0,.83.48,1.45,1.15,1.45s1.14-.62,1.14-1.47c0-.64-.32-1.45-1.13-1.45S242.59,248.27,242.59,249Z" transform="translate(-1.16)"/><path class="cls-7" d="M247.28,246v1.09h1v.52h-1v2c0,.47.13.74.51.74a1.63,1.63,0,0,0,.4,0l0,.51a1.51,1.51,0,0,1-.6.1,1,1,0,0,1-.75-.29,1.42,1.42,0,0,1-.26-1v-2.06H246v-.52h.59v-.91Z" transform="translate(-1.16)"/><path class="cls-7" d="M249.8,246a.43.43,0,1,1-.85,0,.41.41,0,0,1,.43-.42A.4.4,0,0,1,249.8,246Zm-.77,4.84V247.1h.69v3.77Z" transform="translate(-1.16)"/><path class="cls-7" d="M250.93,250.87v-3.25h-.53v-.52h.53v-.18a1.78,1.78,0,0,1,.44-1.32,1.3,1.3,0,0,1,.92-.35,1.46,1.46,0,0,1,.58.11l-.09.53a1,1,0,0,0-.44-.09c-.58,0-.73.52-.73,1.09v.21h.91v.52h-.91v3.25Z" transform="translate(-1.16)"/><path class="cls-7" d="M234.16,259.53a1.88,1.88,0,0,0,.91.27c.5,0,.73-.25.73-.56s-.19-.51-.7-.7c-.68-.24-1-.61-1-1.06a1.16,1.16,0,0,1,1.3-1.11,1.92,1.92,0,0,1,.93.23l-.17.5a1.5,1.5,0,0,0-.77-.22c-.41,0-.63.24-.63.52s.22.45.71.64c.66.25,1,.57,1,1.14s-.51,1.13-1.41,1.13a2.13,2.13,0,0,1-1.06-.26Z" transform="translate(-1.16)"/><path class="cls-7" d="M240,260.09a2.6,2.6,0,0,1-1.09.22,1.8,1.8,0,0,1-1.88-1.93,1.92,1.92,0,0,1,2-2,2.31,2.31,0,0,1,1,.19l-.15.53a1.65,1.65,0,0,0-.8-.18,1.31,1.31,0,0,0-1.33,1.43,1.29,1.29,0,0,0,1.31,1.41,1.89,1.89,0,0,0,.84-.19Z" transform="translate(-1.16)"/><path class="cls-7" d="M244.21,258.31a1.84,1.84,0,0,1-1.88,2,1.79,1.79,0,0,1-1.81-1.94,1.84,1.84,0,0,1,1.87-2A1.79,1.79,0,0,1,244.21,258.31Zm-3,0c0,.83.47,1.45,1.14,1.45s1.15-.62,1.15-1.47c0-.64-.32-1.45-1.13-1.45S241.22,257.63,241.22,258.35Z" transform="translate(-1.16)"/><path class="cls-7" d="M245.08,257.63c0-.44,0-.82,0-1.18h.61l0,.75h0a1.12,1.12,0,0,1,1-.83l.2,0V257a.82.82,0,0,0-.23,0,1,1,0,0,0-.92.88,1.47,1.47,0,0,0,0,.32v2h-.67Z" transform="translate(-1.16)"/><path class="cls-7" d="M247.93,258.47a1.22,1.22,0,0,0,1.3,1.31,2.45,2.45,0,0,0,1-.2l.12.49a3,3,0,0,1-1.26.24,1.75,1.75,0,0,1-1.85-1.91,1.83,1.83,0,0,1,1.77-2,1.6,1.6,0,0,1,1.56,1.78,2,2,0,0,1,0,.32Zm2-.49a1,1,0,0,0-.95-1.12,1.14,1.14,0,0,0-1.05,1.12Z" transform="translate(-1.16)"/><path class="cls-7" d="M251.36,259.53a1.85,1.85,0,0,0,.91.27c.5,0,.73-.25.73-.56s-.19-.51-.7-.7c-.68-.24-1-.61-1-1.06a1.16,1.16,0,0,1,1.3-1.11,2,2,0,0,1,.93.23l-.17.5a1.5,1.5,0,0,0-.77-.22c-.41,0-.63.24-.63.52s.22.45.71.64c.66.25,1,.57,1,1.14s-.51,1.13-1.41,1.13a2.13,2.13,0,0,1-1.06-.26Z" transform="translate(-1.16)"/><rect class="cls-16" x="108.41" y="227.24" width="69.73" height="50.81"/><g class="cls-17"><rect class="cls-18" x="108.41" y="227.24" width="69.73" height="50.81"/><line class="cls-18" x1="108.41" y1="269.58" x2="178.14" y2="269.58"/><line class="cls-18" x1="108.41" y1="261.11" x2="178.14" y2="261.11"/><line class="cls-18" x1="108.41" y1="252.64" x2="178.14" y2="252.64"/><line class="cls-18" x1="108.41" y1="244.17" x2="178.14" y2="244.17"/><line class="cls-18" x1="108.41" y1="235.7" x2="178.14" y2="235.7"/><line class="cls-18" x1="166.52" y1="227.24" x2="166.52" y2="278.05"/><line class="cls-18" x1="154.9" y1="227.24" x2="154.9" y2="278.05"/><line class="cls-18" x1="143.28" y1="227.24" x2="143.28" y2="278.05"/><line class="cls-18" x1="131.65" y1="227.24" x2="131.65" y2="278.05"/><line class="cls-18" x1="120.03" y1="227.24" x2="120.03" y2="278.05"/></g><path class="cls-7" d="M110.57,221c0-.42,0-.77,0-1.11h.66l0,.66h0a1.41,1.41,0,0,1,1.29-.75,1.21,1.21,0,0,1,1.16.82h0a1.77,1.77,0,0,1,.46-.54,1.43,1.43,0,0,1,.91-.28c.54,0,1.35.35,1.35,1.78V224h-.73v-2.33c0-.79-.29-1.26-.89-1.26a1,1,0,0,0-.89.68,1.36,1.36,0,0,0-.06.37V224h-.73v-2.46c0-.66-.29-1.13-.86-1.13a1,1,0,0,0-.92.75.85.85,0,0,0-.06.36V224h-.73Z" transform="translate(-1.16)"/><path class="cls-7" d="M121.38,222a2,2,0,0,1-2,2.19,2,2,0,0,1-2-2.12,2,2,0,0,1,2-2.18A1.94,1.94,0,0,1,121.38,222Zm-3.27,0c0,.9.52,1.59,1.25,1.59s1.25-.68,1.25-1.6c0-.7-.35-1.58-1.23-1.58S118.11,221.21,118.11,222Z" transform="translate(-1.16)"/><path class="cls-7" d="M123.22,218.75v1.18h1.07v.57h-1.07v2.22c0,.51.15.8.56.8a1.49,1.49,0,0,0,.44-.06l0,.57a2,2,0,0,1-.66.1,1,1,0,0,1-.81-.32,1.52,1.52,0,0,1-.29-1.07V220.5h-.64v-.57h.64v-1Z" transform="translate(-1.16)"/><path class="cls-7" d="M126,218.77a.47.47,0,0,1-.93,0,.45.45,0,0,1,.47-.46A.44.44,0,0,1,126,218.77Zm-.84,5.27v-4.11h.75V224Z" transform="translate(-1.16)"/><path class="cls-7" d="M127.2,224V220.5h-.58v-.57h.58v-.2a1.93,1.93,0,0,1,.48-1.43,1.39,1.39,0,0,1,1-.39,1.78,1.78,0,0,1,.64.12l-.11.58a1.12,1.12,0,0,0-.47-.09c-.64,0-.8.56-.8,1.19v.22h1v.57h-1V224Z" transform="translate(-1.16)"/><path class="cls-7" d="M133.69,224l-.06-.52h0a1.52,1.52,0,0,1-1.26.62,1.18,1.18,0,0,1-1.26-1.19c0-1,.89-1.53,2.48-1.53v-.08a.85.85,0,0,0-.94-1,2.12,2.12,0,0,0-1.07.3l-.17-.49a2.55,2.55,0,0,1,1.35-.36c1.26,0,1.57.85,1.57,1.68v1.54a5,5,0,0,0,.07,1Zm-.12-2.1c-.81,0-1.74.13-1.74.93a.67.67,0,0,0,.71.71,1,1,0,0,0,1-.69.62.62,0,0,0,0-.23Z" transform="translate(-1.16)"/><path class="cls-7" d="M138.44,223.89a2.81,2.81,0,0,1-1.19.24,2,2,0,0,1-2-2.1,2.09,2.09,0,0,1,2.21-2.19,2.32,2.32,0,0,1,1,.22l-.17.57a1.76,1.76,0,0,0-.86-.19,1.55,1.55,0,0,0,0,3.09,2.17,2.17,0,0,0,.92-.2Z" transform="translate(-1.16)"/><path class="cls-7" d="M140.32,218.75v1.18h1.07v.57h-1.07v2.22c0,.51.15.8.56.8a1.49,1.49,0,0,0,.44-.06l0,.57a2,2,0,0,1-.66.1,1,1,0,0,1-.81-.32,1.52,1.52,0,0,1-.29-1.07V220.5H139v-.57h.63v-1Z" transform="translate(-1.16)"/><path class="cls-7" d="M143.07,218.77a.47.47,0,0,1-.93,0,.45.45,0,0,1,.47-.46A.44.44,0,0,1,143.07,218.77Zm-.83,5.27v-4.11H143V224Z" transform="translate(-1.16)"/><path class="cls-7" d="M144.51,219.93l.81,2.31a8.37,8.37,0,0,1,.33,1h0a10.76,10.76,0,0,1,.35-1l.8-2.31h.78L146,224h-.71l-1.57-4.11Z" transform="translate(-1.16)"/><path class="cls-7" d="M149.15,218.77a.47.47,0,0,1-.93,0,.45.45,0,0,1,.47-.46A.44.44,0,0,1,149.15,218.77Zm-.84,5.27v-4.11h.75V224Z" transform="translate(-1.16)"/><path class="cls-7" d="M151.2,218.75v1.18h1.07v.57H151.2v2.22c0,.51.15.8.56.8a1.49,1.49,0,0,0,.44-.06l0,.57a2,2,0,0,1-.66.1,1,1,0,0,1-.81-.32,1.52,1.52,0,0,1-.29-1.07V220.5h-.64v-.57h.64v-1Z" transform="translate(-1.16)"/><path class="cls-7" d="M153.46,219.93l.91,2.43c.09.27.19.59.26.84h0c.07-.25.16-.56.26-.86l.81-2.41h.8l-1.13,2.93a6.29,6.29,0,0,1-1.41,2.58,2,2,0,0,1-.92.48l-.18-.63a2.15,2.15,0,0,0,.65-.36,2.25,2.25,0,0,0,.63-.84.38.38,0,0,0,.06-.18.76.76,0,0,0-.05-.19l-1.52-3.79Z" transform="translate(-1.16)"/><path class="cls-7" d="M100.94,265.54h1.18v-1.07h.57v1.07h2.22c.51,0,.8-.14.8-.56a1.94,1.94,0,0,0,0-.43l.56,0a1.79,1.79,0,0,1,.1.66,1,1,0,0,1-.32.81,1.52,1.52,0,0,1-1.07.28h-2.24v.64h-.57v-.64h-1Z" transform="translate(-1.16)"/><path class="cls-7" d="M104.14,260a2,2,0,0,1,2.19,2.05,2,2,0,0,1-2.12,2,2,2,0,0,1-2.18-2A1.94,1.94,0,0,1,104.14,260Zm0,3.26c.9,0,1.58-.52,1.58-1.25s-.68-1.25-1.6-1.25c-.7,0-1.58.35-1.58,1.24S103.4,263.22,104.19,263.22Z" transform="translate(-1.16)"/><path class="cls-7" d="M103.46,259c-.52,0-.95,0-1.34,0v-.67l.71,0h0a1.6,1.6,0,0,1-.8-1.46,1.86,1.86,0,0,1,2.09-1.75,2,2,0,0,1,2.21,1.87,1.44,1.44,0,0,1-.65,1.27v0h2.24V259Zm1.1-.74a1.55,1.55,0,0,0,.31,0,1.15,1.15,0,0,0,.87-1.12c0-.79-.65-1.25-1.59-1.25s-1.53.44-1.53,1.23a1.2,1.2,0,0,0,.93,1.13,1.45,1.45,0,0,0,.3,0Z" transform="translate(-1.16)"/><path class="cls-7" d="M100.94,251.48h1.18v-1.07h.57v1.07h2.22c.51,0,.8-.15.8-.56a2,2,0,0,0,0-.44l.56,0a1.79,1.79,0,0,1,.1.66,1,1,0,0,1-.32.81,1.52,1.52,0,0,1-1.07.29h-2.24v.64h-.57v-.64h-1Z" transform="translate(-1.16)"/><path class="cls-7" d="M101,248.73a.47.47,0,0,1,0,.93.45.45,0,0,1-.46-.47A.44.44,0,0,1,101,248.73Zm5.27.83h-4.11v-.74h4.11Z" transform="translate(-1.16)"/><path class="cls-7" d="M105.47,247.68a2,2,0,0,0,.3-1c0-.54-.28-.8-.62-.8s-.55.21-.75.77c-.27.74-.67,1.08-1.17,1.08a1.26,1.26,0,0,1-1.2-1.41,2.15,2.15,0,0,1,.25-1l.55.19a1.53,1.53,0,0,0-.24.84c0,.44.25.69.56.69s.49-.25.7-.78c.27-.71.62-1.08,1.24-1.08s1.23.56,1.23,1.54a2.3,2.3,0,0,1-.28,1.15Z" transform="translate(-1.16)"/><path class="cls-7" d="M105.47,244.31a2,2,0,0,0,.3-1c0-.55-.28-.8-.62-.8s-.55.21-.75.76c-.27.74-.67,1.09-1.17,1.09A1.27,1.27,0,0,1,102,243a2.11,2.11,0,0,1,.25-1l.55.19a1.5,1.5,0,0,0-.24.84c0,.44.25.69.56.69s.49-.25.7-.79c.27-.71.62-1.08,1.24-1.08s1.23.57,1.23,1.54a2.37,2.37,0,0,1-.28,1.16Z" transform="translate(-1.16)"/><path class="cls-7" d="M105.11,237.4c.43,0,.8,0,1.12,0V238l-.67,0v0a1.55,1.55,0,0,1,.77,1.36c0,.65-.36,1.42-1.81,1.42h-2.4v-.75h2.28c.78,0,1.31-.24,1.31-.92a1.07,1.07,0,0,0-.68-1,1,1,0,0,0-.39-.07h-2.52v-.75Z" transform="translate(-1.16)"/><path class="cls-7" d="M104.31,235.74a1.32,1.32,0,0,0,1.43-1.41,2.72,2.72,0,0,0-.21-1.14l.53-.12a3.26,3.26,0,0,1,.26,1.36,1.91,1.91,0,0,1-2.08,2,2,2,0,0,1-2.21-1.93,1.74,1.74,0,0,1,1.93-1.7l.35,0Zm-.53-2.19a1.07,1.07,0,0,0-1.22,1,1.23,1.23,0,0,0,1.22,1.14Z" transform="translate(-1.16)"/><path class="cls-7" d="M105.47,232a2,2,0,0,0,.3-1c0-.55-.28-.8-.62-.8s-.55.21-.75.76c-.27.74-.67,1.09-1.17,1.09a1.26,1.26,0,0,1-1.2-1.42,2.14,2.14,0,0,1,.25-1l.55.19a1.53,1.53,0,0,0-.24.84c0,.44.25.69.56.69s.49-.25.7-.78c.27-.72.62-1.08,1.24-1.08s1.23.56,1.23,1.53a2.37,2.37,0,0,1-.28,1.16Z" transform="translate(-1.16)"/><rect class="cls-4" x="126.61" y="246.73" width="32.87" height="11.29"/><path class="cls-7" d="M132.56,251.06l.5,1.91c.11.42.21.81.28,1.2h0c.08-.38.21-.78.33-1.19l.62-1.92h.57l.59,1.88c.14.45.25.85.33,1.23h0a9.66,9.66,0,0,1,.29-1.22l.53-1.89h.68l-1.21,3.77h-.63l-.57-1.8a10.31,10.31,0,0,1-.34-1.24h0c-.1.45-.22.84-.35,1.25l-.61,1.79H133l-1.14-3.77Z" transform="translate(-1.16)"/><path class="cls-7" d="M138.33,253.07a1.22,1.22,0,0,0,1.3,1.31,2.41,2.41,0,0,0,1-.2l.12.49a3,3,0,0,1-1.25.24,1.76,1.76,0,0,1-1.86-1.91,1.83,1.83,0,0,1,1.77-2,1.6,1.6,0,0,1,1.56,1.78c0,.14,0,.25,0,.32Zm2-.49c0-.44-.18-1.12-.95-1.12a1.14,1.14,0,0,0-1.06,1.12Z" transform="translate(-1.16)"/><path class="cls-7" d="M142.62,250a.4.4,0,0,1-.43.43.42.42,0,0,1-.42-.43.41.41,0,0,1,.43-.42A.4.4,0,0,1,142.62,250Zm-.76,4.84v-3.77h.69v3.77Z" transform="translate(-1.16)"/><path class="cls-7" d="M146.94,251.06c0,.27,0,.57,0,1v2.19a2.21,2.21,0,0,1-.54,1.73,2,2,0,0,1-1.37.45,2.45,2.45,0,0,1-1.26-.31l.17-.53a2.1,2.1,0,0,0,1.11.3c.7,0,1.22-.37,1.22-1.32v-.42h0a1.35,1.35,0,0,1-1.2.63,1.68,1.68,0,0,1-1.61-1.84,1.82,1.82,0,0,1,1.7-2,1.25,1.25,0,0,1,1.18.65h0l0-.56Zm-.71,1.48a1.06,1.06,0,0,0,0-.31,1,1,0,0,0-1-.72c-.66,0-1.12.55-1.12,1.42s.37,1.36,1.11,1.36a1,1,0,0,0,.95-.7,1.19,1.19,0,0,0,.06-.37Z" transform="translate(-1.16)"/><path class="cls-7" d="M148.05,249.29h.68v2.36h0a1.28,1.28,0,0,1,.49-.49,1.46,1.46,0,0,1,.7-.19c.51,0,1.32.31,1.32,1.61v2.25h-.69v-2.17c0-.61-.22-1.12-.87-1.12a1,1,0,0,0-.92.68.85.85,0,0,0-.05.33v2.28h-.68Z" transform="translate(-1.16)"/><path class="cls-7" d="M153.17,250v1.09h1v.52h-1v2c0,.47.13.74.52.74a1.61,1.61,0,0,0,.39,0l0,.51a1.51,1.51,0,0,1-.6.1.93.93,0,0,1-.74-.29,1.37,1.37,0,0,1-.27-1v-2.06h-.58v-.52h.58v-.91Z" transform="translate(-1.16)"/><path class="cls-7" d="M154.83,254.13a1.81,1.81,0,0,0,.91.27c.5,0,.73-.25.73-.56s-.2-.51-.7-.69c-.68-.25-1-.62-1-1.07a1.16,1.16,0,0,1,1.3-1.11,2,2,0,0,1,.93.23l-.17.5a1.5,1.5,0,0,0-.77-.22c-.41,0-.64.24-.64.52s.23.45.72.64c.66.25,1,.58,1,1.14s-.51,1.13-1.41,1.13a2.13,2.13,0,0,1-1.06-.26Z" transform="translate(-1.16)"/><rect class="cls-16" x="9.29" y="227.24" width="69.73" height="50.81"/><g class="cls-17"><rect class="cls-18" x="9.29" y="227.24" width="69.73" height="50.81"/><line class="cls-18" x1="9.29" y1="269.58" x2="79.02" y2="269.58"/><line class="cls-18" x1="9.29" y1="261.11" x2="79.02" y2="261.11"/><line class="cls-18" x1="9.29" y1="252.64" x2="79.02" y2="252.64"/><line class="cls-18" x1="9.29" y1="244.17" x2="79.02" y2="244.17"/><line class="cls-18" x1="9.29" y1="235.7" x2="79.02" y2="235.7"/><line class="cls-18" x1="67.4" y1="227.24" x2="67.4" y2="278.05"/><line class="cls-18" x1="55.78" y1="227.24" x2="55.78" y2="278.05"/><line class="cls-18" x1="44.16" y1="227.24" x2="44.16" y2="278.05"/><line class="cls-18" x1="32.54" y1="227.24" x2="32.54" y2="278.05"/><line class="cls-18" x1="20.91" y1="227.24" x2="20.91" y2="278.05"/></g><path class="cls-7" d="M12.35,218.75v1.18h1.07v.57H12.35v2.22c0,.51.14.8.56.8a1.41,1.41,0,0,0,.43-.06l0,.57a2.15,2.15,0,0,1-.67.1,1,1,0,0,1-.8-.32,1.48,1.48,0,0,1-.29-1.07V220.5H11v-.57h.64v-1Z" transform="translate(-1.16)"/><path class="cls-7" d="M17.93,222a2,2,0,0,1-2,2.19,2,2,0,0,1-2-2.12,2,2,0,0,1,2-2.18A1.94,1.94,0,0,1,17.93,222Zm-3.26,0c0,.9.52,1.59,1.25,1.59s1.25-.68,1.25-1.6c0-.7-.35-1.58-1.23-1.58S14.67,221.21,14.67,222Z" transform="translate(-1.16)"/><path class="cls-7" d="M18.88,221.27c0-.53,0-1,0-1.34h.67l0,.7h0a1.62,1.62,0,0,1,1.47-.79,1.86,1.86,0,0,1,1.74,2.09,2,2,0,0,1-1.87,2.21,1.44,1.44,0,0,1-1.27-.65h0v2.23h-.74Zm.74,1.1a1.39,1.39,0,0,0,0,.3,1.16,1.16,0,0,0,1.12.88c.79,0,1.25-.65,1.25-1.59s-.43-1.53-1.22-1.53a1.19,1.19,0,0,0-1.13.93,1,1,0,0,0-.05.3Z" transform="translate(-1.16)"/><path class="cls-7" d="M25.51,221.27c0-.53,0-1,0-1.34h.67l0,.7h0a1.62,1.62,0,0,1,1.46-.79,1.86,1.86,0,0,1,1.75,2.09,2,2,0,0,1-1.87,2.21,1.44,1.44,0,0,1-1.27-.65h0v2.23h-.74Zm.74,1.1a1.36,1.36,0,0,0,0,.3,1.15,1.15,0,0,0,1.12.88c.79,0,1.25-.65,1.25-1.59s-.43-1.53-1.22-1.53a1.21,1.21,0,0,0-1.14.93,1.45,1.45,0,0,0-.05.3Z" transform="translate(-1.16)"/><path class="cls-7" d="M30.77,222.12a1.32,1.32,0,0,0,1.41,1.43,2.72,2.72,0,0,0,1.14-.21l.12.53a3.26,3.26,0,0,1-1.36.26,1.92,1.92,0,0,1-2-2.08A2,2,0,0,1,32,219.84a1.74,1.74,0,0,1,1.7,1.93,2.61,2.61,0,0,1,0,.35Zm2.19-.53a1.07,1.07,0,0,0-1-1.22,1.24,1.24,0,0,0-1.14,1.22Z" transform="translate(-1.16)"/><path class="cls-7" d="M36.89,224l-.06-.52h0a1.52,1.52,0,0,1-1.26.62A1.17,1.17,0,0,1,34.29,223c0-1,.88-1.53,2.47-1.53v-.08a.85.85,0,0,0-.94-1,2.12,2.12,0,0,0-1.07.3l-.17-.49a2.59,2.59,0,0,1,1.36-.36c1.25,0,1.56.85,1.56,1.68v1.54a5.86,5.86,0,0,0,.07,1Zm-.11-2.1c-.82,0-1.75.13-1.75.93a.67.67,0,0,0,.71.71,1,1,0,0,0,1-.69.64.64,0,0,0,.05-.23Z" transform="translate(-1.16)"/><path class="cls-7" d="M39.45,221.82h0a5.45,5.45,0,0,1,.37-.47l1.2-1.42h.91l-1.59,1.69L42.16,224h-.91l-1.42-2-.38.43V224h-.74v-6h.74Z" transform="translate(-1.16)"/><path class="cls-7" d="M42.59,223.28a2,2,0,0,0,1,.3c.54,0,.8-.28.8-.62s-.22-.55-.77-.75c-.74-.27-1.09-.68-1.09-1.17a1.27,1.27,0,0,1,1.42-1.2,2,2,0,0,1,1,.25l-.18.54a1.66,1.66,0,0,0-.84-.23c-.45,0-.69.25-.69.56s.24.49.78.69c.71.28,1.08.63,1.08,1.24s-.56,1.24-1.54,1.24a2.37,2.37,0,0,1-1.16-.28Z" transform="translate(-1.16)"/><path class="cls-7" d="M1.82,265.54H3v-1.07h.57v1.07H5.79c.51,0,.8-.14.8-.56a1.94,1.94,0,0,0,0-.43l.56,0a1.79,1.79,0,0,1,.1.66,1.05,1.05,0,0,1-.31.81,1.57,1.57,0,0,1-1.08.28H3.57v.64H3v-.64H2Z" transform="translate(-1.16)"/><path class="cls-7" d="M5,260A2,2,0,0,1,7.21,262a2,2,0,0,1-2.12,2,2,2,0,0,1-2.18-2A2,2,0,0,1,5,260Zm.05,3.26c.9,0,1.58-.52,1.58-1.25s-.67-1.25-1.6-1.25c-.7,0-1.58.35-1.58,1.24S4.28,263.22,5.07,263.22Z" transform="translate(-1.16)"/><path class="cls-7" d="M4.34,259c-.52,0-.95,0-1.34,0v-.67l.71,0h0a1.62,1.62,0,0,1-.8-1.46A1.86,1.86,0,0,1,5,255.12,2,2,0,0,1,7.21,257a1.44,1.44,0,0,1-.65,1.27v0H8.8V259Zm1.1-.74a1.55,1.55,0,0,0,.31,0,1.15,1.15,0,0,0,.87-1.12c0-.79-.64-1.25-1.59-1.25s-1.53.44-1.53,1.23a1.2,1.2,0,0,0,.93,1.13,1.45,1.45,0,0,0,.3,0Z" transform="translate(-1.16)"/><path class="cls-7" d="M1.82,251.48H3v-1.07h.57v1.07H5.79c.51,0,.8-.15.8-.56a2,2,0,0,0,0-.44l.56,0a1.79,1.79,0,0,1,.1.66,1.05,1.05,0,0,1-.31.81,1.57,1.57,0,0,1-1.08.29H3.57v.64H3v-.64H2Z" transform="translate(-1.16)"/><path class="cls-7" d="M1.85,248.73a.47.47,0,0,1,0,.93.46.46,0,0,1-.47-.47A.44.44,0,0,1,1.85,248.73Zm5.26.83H3v-.74H7.11Z" transform="translate(-1.16)"/><path class="cls-7" d="M6.35,247.68a2,2,0,0,0,.3-1c0-.54-.27-.8-.61-.8s-.56.21-.76.77c-.26.74-.67,1.08-1.17,1.08a1.26,1.26,0,0,1-1.2-1.41,2.15,2.15,0,0,1,.25-1l.55.19a1.53,1.53,0,0,0-.24.84c0,.44.25.69.56.69s.49-.25.7-.78c.27-.71.63-1.08,1.24-1.08s1.23.56,1.23,1.54a2.3,2.3,0,0,1-.28,1.15Z" transform="translate(-1.16)"/><path class="cls-7" d="M6.35,244.31a2,2,0,0,0,.3-1c0-.55-.27-.8-.61-.8s-.56.21-.76.76c-.26.74-.67,1.09-1.17,1.09A1.27,1.27,0,0,1,2.91,243a2.11,2.11,0,0,1,.25-1l.55.19a1.5,1.5,0,0,0-.24.84c0,.44.25.69.56.69s.49-.25.7-.79c.27-.71.63-1.08,1.24-1.08s1.23.57,1.23,1.54a2.37,2.37,0,0,1-.28,1.16Z" transform="translate(-1.16)"/><path class="cls-7" d="M6,237.4c.43,0,.8,0,1.12,0V238l-.67,0v0a1.55,1.55,0,0,1,.77,1.36c0,.65-.36,1.42-1.8,1.42H3v-.75H5.28c.78,0,1.31-.24,1.31-.92a1.07,1.07,0,0,0-.68-1,1,1,0,0,0-.38-.07H3v-.75Z" transform="translate(-1.16)"/><path class="cls-7" d="M5.19,235.74a1.31,1.31,0,0,0,1.43-1.41,2.72,2.72,0,0,0-.21-1.14l.53-.12a3.26,3.26,0,0,1,.26,1.36,1.91,1.91,0,0,1-2.07,2,2,2,0,0,1-2.22-1.93,1.74,1.74,0,0,1,1.94-1.7l.34,0Zm-.53-2.19a1.07,1.07,0,0,0-1.22,1,1.23,1.23,0,0,0,1.22,1.14Z" transform="translate(-1.16)"/><path class="cls-7" d="M6.35,232a2,2,0,0,0,.3-1c0-.55-.27-.8-.61-.8s-.56.21-.76.76c-.26.74-.67,1.09-1.17,1.09a1.26,1.26,0,0,1-1.2-1.42,2.14,2.14,0,0,1,.25-1l.55.19a1.53,1.53,0,0,0-.24.84c0,.44.25.69.56.69s.49-.25.7-.78c.27-.72.63-1.08,1.24-1.08s1.23.56,1.23,1.53a2.37,2.37,0,0,1-.28,1.16Z" transform="translate(-1.16)"/><rect class="cls-4" x="24.73" y="243.69" width="38" height="17.91"/><path class="cls-7" d="M30.09,249.05a1.21,1.21,0,0,0,1.29,1.31,2.52,2.52,0,0,0,1.05-.19l.11.49a3,3,0,0,1-1.25.23,1.75,1.75,0,0,1-1.86-1.9,1.83,1.83,0,0,1,1.77-2,1.59,1.59,0,0,1,1.56,1.77,2.33,2.33,0,0,1,0,.32Zm2-.49a1,1,0,0,0-1-1.11,1.13,1.13,0,0,0-1,1.11Z" transform="translate(-1.16)"/><path class="cls-7" d="M33.61,248.06c0-.39,0-.71,0-1h.61l0,.63h0a1.37,1.37,0,0,1,1.24-.71c.53,0,1.34.31,1.34,1.6v2.26h-.69v-2.18c0-.61-.23-1.11-.87-1.11a1,1,0,0,0-.92.7,1,1,0,0,0-.05.32v2.27h-.69Z" transform="translate(-1.16)"/><path class="cls-7" d="M37.94,245.28h.69v2.36h0a1.31,1.31,0,0,1,.5-.49,1.36,1.36,0,0,1,.7-.19c.5,0,1.32.31,1.32,1.61v2.25h-.69v-2.17c0-.61-.23-1.12-.87-1.12a1,1,0,0,0-.92.68.85.85,0,0,0,0,.33v2.28h-.69Z" transform="translate(-1.16)"/><path class="cls-7" d="M44.36,250.82l0-.48h0a1.38,1.38,0,0,1-1.15.56A1.07,1.07,0,0,1,42,249.82c0-.91.81-1.41,2.26-1.41v-.07a.77.77,0,0,0-.85-.88,1.94,1.94,0,0,0-1,.28l-.15-.45a2.35,2.35,0,0,1,1.24-.33c1.15,0,1.43.78,1.43,1.54v1.41a6.22,6.22,0,0,0,.06.91Zm-.1-1.93c-.75,0-1.6.12-1.6.85a.62.62,0,0,0,.65.66.94.94,0,0,0,.91-.64.78.78,0,0,0,0-.21Z" transform="translate(-1.16)"/><path class="cls-7" d="M46,248.06c0-.39,0-.71,0-1h.61l0,.63h0a1.4,1.4,0,0,1,1.25-.71c.52,0,1.33.31,1.33,1.6v2.26h-.68v-2.18c0-.61-.23-1.11-.88-1.11a1,1,0,0,0-.92.7,1,1,0,0,0,0,.32v2.27H46Z" transform="translate(-1.16)"/><path class="cls-7" d="M53.05,250.68a2.62,2.62,0,0,1-1.08.21A1.79,1.79,0,0,1,50.09,249a1.92,1.92,0,0,1,2-2,2.38,2.38,0,0,1,1,.2l-.16.53a1.62,1.62,0,0,0-.8-.18,1.31,1.31,0,0,0-1.33,1.43,1.29,1.29,0,0,0,1.31,1.41,1.86,1.86,0,0,0,.84-.19Z" transform="translate(-1.16)"/><path class="cls-7" d="M54.19,249.05a1.21,1.21,0,0,0,1.29,1.31,2.49,2.49,0,0,0,1.05-.19l.12.49a3.12,3.12,0,0,1-1.26.23,1.75,1.75,0,0,1-1.86-1.9,1.83,1.83,0,0,1,1.77-2,1.59,1.59,0,0,1,1.56,1.77,2.33,2.33,0,0,1,0,.32Zm2-.49a1,1,0,0,0-1-1.11,1.13,1.13,0,0,0-1,1.11Z" transform="translate(-1.16)"/><path class="cls-7" d="M57.72,248.22c0-.44,0-.83,0-1.18h.6l0,.74h0a1.13,1.13,0,0,1,1-.82.62.62,0,0,1,.2,0v.65a.83.83,0,0,0-.24,0,1,1,0,0,0-.92.88,3.16,3.16,0,0,0,0,.32v2h-.67Z" transform="translate(-1.16)"/><path class="cls-7" d="M29.14,255.34a.4.4,0,0,1-.43.42.41.41,0,0,1-.42-.42.42.42,0,0,1,.43-.43A.41.41,0,0,1,29.14,255.34Zm-.76,4.84V256.4h.69v3.78Z" transform="translate(-1.16)"/><path class="cls-7" d="M30.21,257.42c0-.39,0-.71,0-1h.61l0,.63h0a1.37,1.37,0,0,1,1.24-.71c.53,0,1.34.31,1.34,1.6v2.26h-.69V258c0-.61-.22-1.11-.87-1.11a1,1,0,0,0-1,1v2.27h-.68Z" transform="translate(-1.16)"/><path class="cls-7" d="M35.33,255.32v1.08h1v.52h-1v2c0,.47.13.73.51.73a1.75,1.75,0,0,0,.4,0l0,.51a1.56,1.56,0,0,1-.61.09,1,1,0,0,1-.74-.28,1.45,1.45,0,0,1-.26-1v-2.06h-.59v-.52h.59v-.9Z" transform="translate(-1.16)"/><path class="cls-7" d="M37.42,258.41a1.21,1.21,0,0,0,1.29,1.31,2.49,2.49,0,0,0,1-.19l.12.49a3.12,3.12,0,0,1-1.26.23,1.75,1.75,0,0,1-1.86-1.9,1.83,1.83,0,0,1,1.77-2,1.59,1.59,0,0,1,1.56,1.77,2.33,2.33,0,0,1,0,.32Zm2-.49a1,1,0,0,0-1-1.11,1.13,1.13,0,0,0-1,1.11Z" transform="translate(-1.16)"/><path class="cls-7" d="M41,257.42c0-.39,0-.71,0-1h.61l0,.63h0a1.37,1.37,0,0,1,1.24-.71c.53,0,1.34.31,1.34,1.6v2.26h-.69V258c0-.61-.22-1.11-.87-1.11a1,1,0,0,0-1,1v2.27H41Z" transform="translate(-1.16)"/><path class="cls-7" d="M45.18,259.47a1.71,1.71,0,0,0,.9.28c.5,0,.74-.25.74-.56s-.2-.51-.7-.7c-.68-.24-1-.61-1-1.07a1.16,1.16,0,0,1,1.3-1.1,2,2,0,0,1,.93.23l-.17.5a1.51,1.51,0,0,0-.78-.22c-.4,0-.63.23-.63.52s.23.45.72.64c.66.24,1,.57,1,1.13s-.51,1.13-1.41,1.13A2.21,2.21,0,0,1,45,260Z" transform="translate(-1.16)"/><path class="cls-7" d="M49.13,255.34a.43.43,0,0,1-.85,0,.42.42,0,0,1,.43-.43A.41.41,0,0,1,49.13,255.34Zm-.77,4.84V256.4h.69v3.78Z" transform="translate(-1.16)"/><path class="cls-7" d="M51,255.32v1.08h1v.52H51v2c0,.47.14.73.52.73a1.82,1.82,0,0,0,.4,0l0,.51a1.56,1.56,0,0,1-.61.09,1,1,0,0,1-.74-.28,1.4,1.4,0,0,1-.27-1v-2.06h-.58v-.52h.58v-.9Z" transform="translate(-1.16)"/><path class="cls-7" d="M53.53,255.34a.4.4,0,0,1-.43.42.41.41,0,0,1-.42-.42.42.42,0,0,1,.43-.43A.41.41,0,0,1,53.53,255.34Zm-.76,4.84V256.4h.69v3.78Z" transform="translate(-1.16)"/><path class="cls-7" d="M55,258.41a1.21,1.21,0,0,0,1.29,1.31,2.52,2.52,0,0,0,1-.19l.11.49a3,3,0,0,1-1.25.23,1.75,1.75,0,0,1-1.86-1.9,1.83,1.83,0,0,1,1.77-2,1.6,1.6,0,0,1,1.56,1.77,2.33,2.33,0,0,1,0,.32Zm2-.49a1,1,0,0,0-1-1.11A1.14,1.14,0,0,0,55,257.92Z" transform="translate(-1.16)"/><path class="cls-7" d="M58.41,259.47a1.71,1.71,0,0,0,.9.28c.5,0,.74-.25.74-.56s-.2-.51-.71-.7c-.67-.24-1-.61-1-1.07a1.16,1.16,0,0,1,1.3-1.1,2,2,0,0,1,.93.23l-.17.5a1.54,1.54,0,0,0-.78-.22c-.4,0-.63.23-.63.52s.23.45.72.64c.65.24,1,.57,1,1.13s-.52,1.13-1.41,1.13a2.18,2.18,0,0,1-1.06-.25Z" transform="translate(-1.16)"/><rect class="cls-16" x="202.83" y="128.2" width="69.73" height="50.81"/><g class="cls-17"><rect class="cls-18" x="202.83" y="128.2" width="69.73" height="50.81"/><line class="cls-18" x1="202.83" y1="170.54" x2="272.56" y2="170.54"/><line class="cls-18" x1="202.83" y1="162.08" x2="272.56" y2="162.08"/><line class="cls-18" x1="202.83" y1="153.61" x2="272.56" y2="153.61"/><line class="cls-18" x1="202.83" y1="145.14" x2="272.56" y2="145.14"/><line class="cls-18" x1="202.83" y1="136.67" x2="272.56" y2="136.67"/><line class="cls-18" x1="260.94" y1="128.2" x2="260.94" y2="179.01"/><line class="cls-18" x1="249.32" y1="128.2" x2="249.32" y2="179.01"/><line class="cls-18" x1="237.69" y1="128.2" x2="237.69" y2="179.01"/><line class="cls-18" x1="226.07" y1="128.2" x2="226.07" y2="179.01"/><line class="cls-18" x1="214.45" y1="128.2" x2="214.45" y2="179.01"/></g><path class="cls-7" d="M204.88,124.24a1.9,1.9,0,0,0,1,.3c.54,0,.8-.27.8-.61s-.22-.55-.77-.76c-.74-.26-1.09-.67-1.09-1.16a1.28,1.28,0,0,1,1.42-1.21,2,2,0,0,1,1,.26l-.19.54a1.61,1.61,0,0,0-.84-.24c-.45,0-.69.26-.69.56s.24.5.78.7c.71.27,1.08.63,1.08,1.24s-.56,1.23-1.54,1.23a2.3,2.3,0,0,1-1.15-.28Z" transform="translate(-1.16)"/><path class="cls-7" d="M209.18,119.74a.46.46,0,1,1-.92,0,.45.45,0,0,1,.46-.47A.45.45,0,0,1,209.18,119.74Zm-.83,5.27V120.9h.75V125Z" transform="translate(-1.16)"/><path class="cls-7" d="M210.34,122c0-.43,0-.77,0-1.11H211l0,.68h0a1.5,1.5,0,0,1,1.36-.78c.57,0,1.45.34,1.45,1.75V125h-.75v-2.37c0-.66-.24-1.22-1-1.22a1.06,1.06,0,0,0-1,.77.92.92,0,0,0,0,.35V125h-.75Z" transform="translate(-1.16)"/><path class="cls-7" d="M218.6,120.9c0,.29,0,.62,0,1.13v2.38a2.35,2.35,0,0,1-.59,1.88,2.17,2.17,0,0,1-1.5.5,2.64,2.64,0,0,1-1.36-.34l.18-.57a2.33,2.33,0,0,0,1.21.32c.76,0,1.33-.4,1.33-1.44v-.46h0a1.45,1.45,0,0,1-1.31.69,1.83,1.83,0,0,1-1.75-2,2,2,0,0,1,1.85-2.19,1.38,1.38,0,0,1,1.29.72h0l0-.62Zm-.77,1.62a.9.9,0,0,0-.05-.34,1.07,1.07,0,0,0-1-.79c-.71,0-1.22.6-1.22,1.55s.4,1.48,1.21,1.48a1.1,1.1,0,0,0,1-.76,1.39,1.39,0,0,0,.06-.4Z" transform="translate(-1.16)"/><path class="cls-7" d="M219.81,119h.75v6h-.75Z" transform="translate(-1.16)"/><path class="cls-7" d="M222.23,123.09a1.32,1.32,0,0,0,1.41,1.43,2.66,2.66,0,0,0,1.14-.22l.13.54a3.38,3.38,0,0,1-1.37.25,1.9,1.9,0,0,1-2-2.07,2,2,0,0,1,1.93-2.22,1.74,1.74,0,0,1,1.7,1.94,2.53,2.53,0,0,1,0,.35Zm2.19-.54a1.06,1.06,0,0,0-1-1.21,1.23,1.23,0,0,0-1.15,1.21Z" transform="translate(-1.16)"/><path class="cls-7" d="M230.81,124.86a2.85,2.85,0,0,1-1.19.23,2,2,0,0,1-2-2.09,2.09,2.09,0,0,1,2.21-2.19,2.49,2.49,0,0,1,1,.21l-.17.58a1.73,1.73,0,0,0-.86-.19,1.55,1.55,0,0,0,0,3.09,2.17,2.17,0,0,0,.92-.2Z" transform="translate(-1.16)"/><path class="cls-7" d="M232.05,123.09a1.32,1.32,0,0,0,1.41,1.43,2.7,2.7,0,0,0,1.14-.22l.13.54a3.38,3.38,0,0,1-1.37.25,1.91,1.91,0,0,1-2-2.07,2,2,0,0,1,1.93-2.22,1.74,1.74,0,0,1,1.7,1.94,2.87,2.87,0,0,1,0,.35Zm2.19-.54a1.07,1.07,0,0,0-1-1.21,1.23,1.23,0,0,0-1.14,1.21Z" transform="translate(-1.16)"/><path class="cls-7" d="M235.89,119h.75v6h-.75Z" transform="translate(-1.16)"/><path class="cls-7" d="M237.9,119h.74v6h-.74Z" transform="translate(-1.16)"/><path class="cls-7" d="M239.8,124.24a1.9,1.9,0,0,0,1,.3c.54,0,.79-.27.79-.61s-.21-.55-.76-.76c-.74-.26-1.09-.67-1.09-1.16a1.28,1.28,0,0,1,1.42-1.21,2,2,0,0,1,1,.26l-.18.54a1.66,1.66,0,0,0-.85-.24c-.44,0-.68.26-.68.56s.24.5.78.7c.71.27,1.08.63,1.08,1.24s-.56,1.23-1.54,1.23a2.37,2.37,0,0,1-1.16-.28Z" transform="translate(-1.16)"/><path class="cls-7" d="M196.54,147.31c.3,0,.63,0,1.13,0h2.39a2.38,2.38,0,0,1,1.88.59,2.21,2.21,0,0,1,.49,1.5,2.64,2.64,0,0,1-.34,1.36l-.57-.18a2.33,2.33,0,0,0,.32-1.21c0-.76-.4-1.32-1.43-1.32H200a1.47,1.47,0,0,1,.68,1.31,1.83,1.83,0,0,1-2,1.75,2,2,0,0,1-2.19-1.85,1.36,1.36,0,0,1,.72-1.28v0l-.62,0Zm1.62.77a.9.9,0,0,0-.34,0,1.07,1.07,0,0,0-.79,1c0,.72.6,1.23,1.56,1.23.8,0,1.48-.41,1.48-1.22a1.09,1.09,0,0,0-.77-1,1.39,1.39,0,0,0-.4-.06Z" transform="translate(-1.16)"/><path class="cls-7" d="M198.73,145.69a1.32,1.32,0,0,0,1.43-1.41,2.68,2.68,0,0,0-.21-1.14l.53-.13a3.27,3.27,0,0,1,.26,1.37,1.92,1.92,0,0,1-2.08,2,2,2,0,0,1-2.22-1.93,1.75,1.75,0,0,1,1.94-1.7,2.38,2.38,0,0,1,.35,0Zm-.53-2.2a1.08,1.08,0,0,0-1.22,1,1.24,1.24,0,0,0,1.22,1.15Z" transform="translate(-1.16)"/><path class="cls-7" d="M197.65,141.84c-.42,0-.77,0-1.11,0v-.66l.68-.05h0a1.53,1.53,0,0,1-.78-1.36c0-.57.34-1.46,1.76-1.46h2.45v.75h-2.37c-.66,0-1.21.25-1.21.95a1.06,1.06,0,0,0,.76,1,1.18,1.18,0,0,0,.35,0h2.47v.74Z" transform="translate(-1.16)"/><path class="cls-7" d="M198.73,136.71a1.32,1.32,0,0,0,1.43-1.41,2.68,2.68,0,0,0-.21-1.14l.53-.13a3.35,3.35,0,0,1,.26,1.37,1.92,1.92,0,0,1-2.08,2,2,2,0,0,1-2.22-1.93,1.74,1.74,0,0,1,1.94-1.7l.35,0Zm-.53-2.19a1.06,1.06,0,0,0-1.22,1,1.24,1.24,0,0,0,1.22,1.14Z" transform="translate(-1.16)"/><path class="cls-7" d="M199.89,133a2,2,0,0,0,.29-1c0-.54-.27-.79-.61-.79s-.55.21-.75.76c-.27.74-.68,1.09-1.17,1.09a1.28,1.28,0,0,1-1.21-1.42,2,2,0,0,1,.26-1l.54.18a1.67,1.67,0,0,0-.23.85c0,.44.25.68.56.68s.49-.24.69-.78c.28-.71.63-1.08,1.24-1.08s1.24.56,1.24,1.54a2.37,2.37,0,0,1-.28,1.16Z" transform="translate(-1.16)"/><rect class="cls-4" x="218.97" y="143.66" width="37.45" height="19.89"/><path class="cls-7" d="M225,146.91V148h1v.52h-1v2c0,.47.13.73.51.73a1.75,1.75,0,0,0,.4,0l0,.51a1.76,1.76,0,0,1-.6.09,1,1,0,0,1-.75-.28,1.45,1.45,0,0,1-.26-1v-2.06h-.59V148h.59v-.9Z" transform="translate(-1.16)"/><path class="cls-7" d="M226.8,149.17c0-.45,0-.83,0-1.18h.6l0,.74h0a1.13,1.13,0,0,1,1-.82.62.62,0,0,1,.2,0v.65a.83.83,0,0,0-.24,0,1,1,0,0,0-.92.88,3.16,3.16,0,0,0,0,.32v2h-.67Z" transform="translate(-1.16)"/><path class="cls-7" d="M231.4,151.77l-.06-.48h0a1.4,1.4,0,0,1-1.16.56,1.07,1.07,0,0,1-1.15-1.08c0-.91.81-1.41,2.27-1.41v-.07a.78.78,0,0,0-.86-.88,1.87,1.87,0,0,0-1,.28l-.16-.45a2.4,2.4,0,0,1,1.24-.33c1.16,0,1.44.78,1.44,1.54v1.41a5.08,5.08,0,0,0,.06.91Zm-.1-1.93c-.75,0-1.6.12-1.6.85a.6.6,0,0,0,.64.65.94.94,0,0,0,.92-.63.85.85,0,0,0,0-.22Z" transform="translate(-1.16)"/><path class="cls-7" d="M233.07,149c0-.39,0-.71,0-1h.6l0,.63h0a1.39,1.39,0,0,1,1.25-.71c.52,0,1.33.31,1.33,1.6v2.26h-.69v-2.18c0-.61-.22-1.12-.87-1.12a1,1,0,0,0-1,1v2.27h-.68Z" transform="translate(-1.16)"/><path class="cls-7" d="M237.3,151.06a1.72,1.72,0,0,0,.91.28c.5,0,.73-.25.73-.56s-.2-.51-.7-.7c-.68-.24-1-.61-1-1.07a1.16,1.16,0,0,1,1.3-1.1,1.84,1.84,0,0,1,.93.23l-.17.5a1.5,1.5,0,0,0-.77-.22c-.41,0-.63.23-.63.51s.22.46.71.64c.66.25,1,.58,1,1.14s-.51,1.13-1.41,1.13a2.24,2.24,0,0,1-1.06-.25Z" transform="translate(-1.16)"/><path class="cls-7" d="M243.17,151.63a2.54,2.54,0,0,1-1.08.21,1.79,1.79,0,0,1-1.88-1.92,1.93,1.93,0,0,1,2-2,2.21,2.21,0,0,1,.95.2l-.16.53a1.61,1.61,0,0,0-.79-.18,1.42,1.42,0,0,0,0,2.84,1.93,1.93,0,0,0,.84-.19Z" transform="translate(-1.16)"/><path class="cls-7" d="M244,149.17c0-.45,0-.83,0-1.18h.6l0,.74h0a1.14,1.14,0,0,1,1.05-.82.55.55,0,0,1,.19,0v.65a.8.8,0,0,0-.23,0,1,1,0,0,0-.92.88,1.66,1.66,0,0,0,0,.32v2H244Z" transform="translate(-1.16)"/><path class="cls-7" d="M247.32,146.93a.4.4,0,0,1-.43.42.41.41,0,0,1-.41-.42.41.41,0,0,1,.42-.43A.41.41,0,0,1,247.32,146.93Zm-.76,4.84V148h.69v3.78Z" transform="translate(-1.16)"/><path class="cls-7" d="M248.39,149.22c0-.48,0-.87,0-1.23H249l0,.65h0a1.47,1.47,0,0,1,1.34-.73,1.71,1.71,0,0,1,1.6,1.91,1.79,1.79,0,0,1-1.72,2,1.33,1.33,0,0,1-1.16-.59h0v2.05h-.67Zm.67,1a1.26,1.26,0,0,0,0,.28,1,1,0,0,0,1,.8c.73,0,1.15-.59,1.15-1.45s-.4-1.41-1.12-1.41a1.1,1.1,0,0,0-1,.85,1.37,1.37,0,0,0-.05.28Z" transform="translate(-1.16)"/><path class="cls-7" d="M253.65,146.91V148h1v.52h-1v2c0,.47.13.73.51.73a1.75,1.75,0,0,0,.4,0l0,.51a1.76,1.76,0,0,1-.6.09,1,1,0,0,1-.75-.28,1.45,1.45,0,0,1-.26-1v-2.06h-.58V148H253v-.9Z" transform="translate(-1.16)"/><path class="cls-7" d="M232.33,161a2.64,2.64,0,0,1-1.09.21,1.79,1.79,0,0,1-1.87-1.92,1.92,1.92,0,0,1,2-2,2.14,2.14,0,0,1,1,.2l-.15.53a1.65,1.65,0,0,0-.8-.18,1.31,1.31,0,0,0-1.33,1.43,1.29,1.29,0,0,0,1.31,1.41,1.86,1.86,0,0,0,.84-.19Z" transform="translate(-1.16)"/><path class="cls-7" d="M236.5,159.21a1.85,1.85,0,0,1-1.88,2,1.8,1.8,0,0,1-1.81-1.94,1.84,1.84,0,0,1,1.87-2A1.78,1.78,0,0,1,236.5,159.21Zm-3,0c0,.82.47,1.45,1.14,1.45s1.15-.62,1.15-1.47c0-.64-.32-1.45-1.13-1.45S233.51,158.53,233.51,159.25Z" transform="translate(-1.16)"/><path class="cls-7" d="M240.53,160.1c0,.39,0,.73,0,1H240l0-.62h0a1.43,1.43,0,0,1-1.25.7c-.6,0-1.3-.33-1.3-1.65v-2.21H238v2.09c0,.72.22,1.2.84,1.2a1,1,0,0,0,.91-.62,1,1,0,0,0,.06-.35v-2.32h.69Z" transform="translate(-1.16)"/><path class="cls-7" d="M241.67,158.37c0-.39,0-.71,0-1h.61l0,.63h0a1.37,1.37,0,0,1,1.24-.71c.53,0,1.34.31,1.34,1.6v2.26h-.69V159c0-.61-.22-1.12-.87-1.12a1,1,0,0,0-1,1v2.27h-.68Z" transform="translate(-1.16)"/><path class="cls-7" d="M246.79,156.27v1.08h1v.52h-1v2c0,.47.13.73.52.73a1.72,1.72,0,0,0,.39,0l0,.51a1.76,1.76,0,0,1-.6.09.93.93,0,0,1-.74-.29,1.35,1.35,0,0,1-.27-1v-2.06h-.59v-.52h.59v-.9Z" transform="translate(-1.16)"/><path class="cls-7" d="M248.45,160.42a1.72,1.72,0,0,0,.91.28c.49,0,.73-.25.73-.56s-.2-.51-.7-.7c-.68-.24-1-.61-1-1.07a1.16,1.16,0,0,1,1.3-1.1,1.84,1.84,0,0,1,.93.23l-.17.5a1.5,1.5,0,0,0-.77-.22c-.41,0-.64.23-.64.51s.23.46.72.64c.66.25,1,.58,1,1.14s-.51,1.13-1.41,1.13a2.24,2.24,0,0,1-1.06-.25Z" transform="translate(-1.16)"/><rect class="cls-16" x="76.17" y="128.41" width="69.73" height="50.81"/><g class="cls-17"><rect class="cls-18" x="76.17" y="128.41" width="69.73" height="50.81"/><line class="cls-18" x1="76.17" y1="170.75" x2="145.9" y2="170.75"/><line class="cls-18" x1="76.17" y1="162.29" x2="145.9" y2="162.29"/><line class="cls-18" x1="76.17" y1="153.82" x2="145.9" y2="153.82"/><line class="cls-18" x1="76.17" y1="145.35" x2="145.9" y2="145.35"/><line class="cls-18" x1="76.17" y1="136.88" x2="145.9" y2="136.88"/><line class="cls-18" x1="134.28" y1="128.41" x2="134.28" y2="179.22"/><line class="cls-18" x1="122.66" y1="128.41" x2="122.66" y2="179.22"/><line class="cls-18" x1="111.04" y1="128.41" x2="111.04" y2="179.22"/><line class="cls-18" x1="99.42" y1="128.41" x2="99.42" y2="179.22"/><line class="cls-18" x1="87.8" y1="128.41" x2="87.8" y2="179.22"/></g><path class="cls-7" d="M78.23,124.45a1.89,1.89,0,0,0,1,.3c.55,0,.8-.27.8-.61s-.21-.55-.76-.76c-.74-.26-1.09-.67-1.09-1.16A1.27,1.27,0,0,1,79.58,121a2,2,0,0,1,1,.26l-.19.54a1.61,1.61,0,0,0-.84-.24c-.44,0-.69.26-.69.56s.25.5.79.7c.71.27,1.07.63,1.07,1.24s-.56,1.23-1.53,1.23A2.37,2.37,0,0,1,78,125Z" transform="translate(-1.16)"/><path class="cls-7" d="M82.53,120a.47.47,0,0,1-.93,0,.46.46,0,0,1,.47-.47A.45.45,0,0,1,82.53,120Zm-.83,5.27V121.1h.74v4.12Z" transform="translate(-1.16)"/><path class="cls-7" d="M83.68,122.22c0-.43,0-.78,0-1.12h.66l0,.68h0a1.52,1.52,0,0,1,1.36-.77c.57,0,1.46.34,1.46,1.75v2.46h-.75v-2.37c0-.67-.25-1.22-1-1.22a1.07,1.07,0,0,0-1,.77,1.16,1.16,0,0,0,0,.34v2.48h-.75Z" transform="translate(-1.16)"/><path class="cls-7" d="M92,121.1c0,.3,0,.63,0,1.13v2.39a2.4,2.4,0,0,1-.58,1.88,2.16,2.16,0,0,1-1.5.49,2.58,2.58,0,0,1-1.37-.34l.19-.57a2.22,2.22,0,0,0,1.2.33c.77,0,1.33-.4,1.33-1.44v-.46h0a1.45,1.45,0,0,1-1.31.69,1.84,1.84,0,0,1-1.75-2A2,2,0,0,1,90,121a1.38,1.38,0,0,1,1.28.71h0l0-.62Zm-.78,1.63a1.18,1.18,0,0,0,0-.34,1.07,1.07,0,0,0-1-.79c-.71,0-1.22.6-1.22,1.55s.41,1.48,1.22,1.48a1.09,1.09,0,0,0,1-.76,1.14,1.14,0,0,0,.06-.4Z" transform="translate(-1.16)"/><path class="cls-7" d="M93.15,119.18h.75v6h-.75Z" transform="translate(-1.16)"/><path class="cls-7" d="M95.58,123.3A1.31,1.31,0,0,0,97,124.72a2.67,2.67,0,0,0,1.13-.21l.13.54a3.31,3.31,0,0,1-1.37.25,1.91,1.91,0,0,1-2-2.07A2,2,0,0,1,96.79,121a1.74,1.74,0,0,1,1.7,1.94c0,.15,0,.27,0,.35Zm2.19-.54a1.07,1.07,0,0,0-1-1.21,1.24,1.24,0,0,0-1.15,1.21Z" transform="translate(-1.16)"/><path class="cls-7" d="M104.15,125.07a2.79,2.79,0,0,1-1.18.23,2,2,0,0,1-2-2.1,2.09,2.09,0,0,1,2.21-2.18,2.59,2.59,0,0,1,1,.21l-.17.58a1.76,1.76,0,0,0-.87-.2,1.55,1.55,0,0,0,0,3.1,2,2,0,0,0,.91-.21Z" transform="translate(-1.16)"/><path class="cls-7" d="M105.39,123.3a1.32,1.32,0,0,0,1.41,1.42,2.68,2.68,0,0,0,1.14-.21l.13.54a3.31,3.31,0,0,1-1.37.25,1.91,1.91,0,0,1-2-2.07,2,2,0,0,1,1.93-2.22,1.74,1.74,0,0,1,1.7,1.94,2.53,2.53,0,0,1,0,.35Zm2.2-.54a1.07,1.07,0,0,0-1-1.21,1.23,1.23,0,0,0-1.15,1.21Z" transform="translate(-1.16)"/><path class="cls-7" d="M109.23,119.18H110v6h-.75Z" transform="translate(-1.16)"/><path class="cls-7" d="M111.24,119.18H112v6h-.75Z" transform="translate(-1.16)"/><path class="cls-7" d="M113.15,124.45a1.89,1.89,0,0,0,1,.3c.54,0,.8-.27.8-.61s-.21-.55-.76-.76c-.74-.26-1.09-.67-1.09-1.16A1.27,1.27,0,0,1,114.5,121a2,2,0,0,1,1,.26l-.19.54a1.61,1.61,0,0,0-.84-.24c-.44,0-.69.26-.69.56s.25.5.78.7c.72.27,1.08.63,1.08,1.24s-.56,1.23-1.54,1.23A2.33,2.33,0,0,1,113,125Z" transform="translate(-1.16)"/><path class="cls-7" d="M68.7,167.08h1.18V166h.57v1.07h2.22c.51,0,.8-.15.8-.56a2,2,0,0,0,0-.44l.56,0a1.79,1.79,0,0,1,.1.66,1.05,1.05,0,0,1-.31.81,1.54,1.54,0,0,1-1.07.29H70.45v.64h-.57v-.64h-1Z" transform="translate(-1.16)"/><path class="cls-7" d="M68.73,164.33a.47.47,0,0,1,0,.93.46.46,0,0,1-.47-.47A.44.44,0,0,1,68.73,164.33Zm5.27.83H69.88v-.74H74Z" transform="translate(-1.16)"/><path class="cls-7" d="M73.23,163.28a1.9,1.9,0,0,0,.3-1c0-.54-.27-.8-.61-.8s-.55.21-.76.77c-.26.74-.67,1.09-1.16,1.09a1.27,1.27,0,0,1-1.21-1.42,2.15,2.15,0,0,1,.25-1l.55.19a1.61,1.61,0,0,0-.24.84c0,.45.26.69.56.69s.49-.24.7-.78c.27-.71.63-1.08,1.24-1.08s1.23.56,1.23,1.54a2.3,2.3,0,0,1-.28,1.15Z" transform="translate(-1.16)"/><path class="cls-7" d="M73.23,159.91a1.89,1.89,0,0,0,.3-1c0-.55-.27-.8-.61-.8s-.55.21-.76.76c-.26.74-.67,1.09-1.16,1.09a1.27,1.27,0,0,1-1.21-1.42,2.11,2.11,0,0,1,.25-1l.55.19a1.58,1.58,0,0,0-.24.84c0,.44.26.68.56.68s.49-.24.7-.78c.27-.71.63-1.08,1.24-1.08s1.23.56,1.23,1.54a2.37,2.37,0,0,1-.28,1.16Z" transform="translate(-1.16)"/><path class="cls-7" d="M72.88,153c.42,0,.79,0,1.12,0v.66l-.67,0v0a1.56,1.56,0,0,1,.76,1.36c0,.65-.36,1.42-1.8,1.42H69.88v-.75h2.28c.78,0,1.31-.24,1.31-.92a1.07,1.07,0,0,0-.68-1,1,1,0,0,0-.38-.07H69.88V153Z" transform="translate(-1.16)"/><path class="cls-7" d="M72.08,151.34a1.31,1.31,0,0,0,1.42-1.41,2.72,2.72,0,0,0-.21-1.14l.54-.12a3.29,3.29,0,0,1,.25,1.36,1.91,1.91,0,0,1-2.07,2,2,2,0,0,1-2.22-1.93,1.74,1.74,0,0,1,1.94-1.7l.35,0Zm-.54-2.19a1.06,1.06,0,0,0-1.21,1,1.22,1.22,0,0,0,1.21,1.14Z" transform="translate(-1.16)"/><path class="cls-7" d="M68.7,144.8h1.18v-1.07h.57v1.07h2.22c.51,0,.8-.15.8-.56a2,2,0,0,0,0-.44l.56,0a1.79,1.79,0,0,1,.1.66,1.05,1.05,0,0,1-.31.81,1.54,1.54,0,0,1-1.07.29H70.45v.64h-.57v-.64h-1Z" transform="translate(-1.16)"/><path class="cls-7" d="M69.88,142.54l2.43-.9c.28-.1.6-.2.85-.27h0l-.86-.27-2.42-.81v-.79l2.94,1.12A6.16,6.16,0,0,1,75.39,142a2.11,2.11,0,0,1,.49.92l-.63.18a2,2,0,0,0-.37-.65,2.31,2.31,0,0,0-.83-.63.74.74,0,0,0-.18-.06l-.2.05-3.79,1.52Z" transform="translate(-1.16)"/><path class="cls-7" d="M71.23,138.81c-.53,0-1,0-1.35,0v-.67l.71,0h0a1.62,1.62,0,0,1-.8-1.46,1.86,1.86,0,0,1,2.09-1.75,2,2,0,0,1,2.21,1.87,1.44,1.44,0,0,1-.65,1.27v0h2.24v.74Zm1.09-.74a1.46,1.46,0,0,0,.31,0,1.14,1.14,0,0,0,.87-1.12c0-.79-.64-1.25-1.59-1.25s-1.53.44-1.53,1.23a1.2,1.2,0,0,0,.93,1.13,1.54,1.54,0,0,0,.31,0Z" transform="translate(-1.16)"/><path class="cls-7" d="M72.08,133.55a1.31,1.31,0,0,0,1.42-1.41,2.72,2.72,0,0,0-.21-1.14l.54-.12a3.29,3.29,0,0,1,.25,1.36,1.91,1.91,0,0,1-2.07,2,2,2,0,0,1-2.22-1.93,1.74,1.74,0,0,1,1.94-1.7l.35,0Zm-.54-2.19a1.06,1.06,0,0,0-1.21,1,1.22,1.22,0,0,0,1.21,1.14Z" transform="translate(-1.16)"/><rect class="cls-4" x="93.5" y="148.12" width="32.87" height="11.29"/><path class="cls-7" d="M99.45,152.45l.5,1.92c.11.42.21.81.28,1.2h0c.08-.38.21-.79.33-1.2l.62-1.92h.57l.59,1.89c.14.45.25.85.33,1.23h0a10.21,10.21,0,0,1,.29-1.23l.53-1.89h.68L103,156.22h-.63l-.57-1.8a9.82,9.82,0,0,1-.34-1.24h0a11.4,11.4,0,0,1-.34,1.25l-.61,1.79h-.62l-1.14-3.77Z" transform="translate(-1.16)"/><path class="cls-7" d="M105.22,154.46a1.21,1.21,0,0,0,1.3,1.31,2.6,2.6,0,0,0,1-.19l.12.49a3,3,0,0,1-1.25.23,1.75,1.75,0,0,1-1.86-1.9,1.84,1.84,0,0,1,1.77-2,1.6,1.6,0,0,1,1.56,1.78c0,.14,0,.25,0,.32Zm2-.49c0-.44-.18-1.12-.95-1.12a1.14,1.14,0,0,0-1.06,1.12Z" transform="translate(-1.16)"/><path class="cls-7" d="M109.51,151.39a.4.4,0,0,1-.43.42.42.42,0,0,1-.42-.42.42.42,0,0,1,.43-.43A.41.41,0,0,1,109.51,151.39Zm-.76,4.83v-3.77h.69v3.77Z" transform="translate(-1.16)"/><path class="cls-7" d="M113.83,152.45c0,.27,0,.58,0,1v2.19a2.2,2.2,0,0,1-.54,1.72,2,2,0,0,1-1.37.45,2.45,2.45,0,0,1-1.26-.31l.17-.52a2.2,2.2,0,0,0,1.11.29c.7,0,1.21-.36,1.21-1.31v-.42h0a1.35,1.35,0,0,1-1.2.63,1.69,1.69,0,0,1-1.61-1.84,1.82,1.82,0,0,1,1.7-2,1.26,1.26,0,0,1,1.18.66h0l0-.57Zm-.71,1.49a1,1,0,0,0,0-.31,1,1,0,0,0-1-.73c-.66,0-1.12.55-1.12,1.43s.37,1.35,1.11,1.35a1,1,0,0,0,1-.7,1.13,1.13,0,0,0,.06-.36Z" transform="translate(-1.16)"/><path class="cls-7" d="M114.94,150.69h.68V153h0a1.26,1.26,0,0,1,.49-.48,1.36,1.36,0,0,1,.7-.2c.51,0,1.32.31,1.32,1.62v2.24h-.69v-2.16c0-.61-.22-1.13-.87-1.13a1,1,0,0,0-.92.69.79.79,0,0,0,0,.33v2.27h-.68Z" transform="translate(-1.16)"/><path class="cls-7" d="M120.06,151.36v1.09h1V153h-1v2c0,.46.13.73.51.73a1.25,1.25,0,0,0,.4-.05l0,.52a1.76,1.76,0,0,1-.6.09,1,1,0,0,1-.75-.29,1.42,1.42,0,0,1-.26-1V153h-.59v-.52h.59v-.91Z" transform="translate(-1.16)"/><path class="cls-7" d="M121.72,155.52a1.81,1.81,0,0,0,.91.27c.49,0,.73-.25.73-.56s-.2-.5-.7-.69c-.68-.24-1-.62-1-1.07a1.16,1.16,0,0,1,1.3-1.11,1.84,1.84,0,0,1,.93.24l-.17.5a1.41,1.41,0,0,0-.77-.22c-.41,0-.64.23-.64.51s.23.45.72.64c.66.25,1,.58,1,1.14s-.51,1.13-1.41,1.13a2.13,2.13,0,0,1-1.06-.26Z" transform="translate(-1.16)"/><rect class="cls-16" x="202.36" y="30.54" width="69.73" height="50.81"/><g class="cls-17"><rect class="cls-18" x="202.36" y="30.54" width="69.73" height="50.81"/><line class="cls-18" x1="202.36" y1="72.88" x2="272.09" y2="72.88"/><line class="cls-18" x1="202.36" y1="64.41" x2="272.09" y2="64.41"/><line class="cls-18" x1="202.36" y1="55.94" x2="272.09" y2="55.94"/><line class="cls-18" x1="202.36" y1="47.47" x2="272.09" y2="47.47"/><line class="cls-18" x1="202.36" y1="39" x2="272.09" y2="39"/><line class="cls-18" x1="260.47" y1="30.54" x2="260.47" y2="81.35"/><line class="cls-18" x1="248.85" y1="30.54" x2="248.85" y2="81.35"/><line class="cls-18" x1="237.23" y1="30.54" x2="237.23" y2="81.35"/><line class="cls-18" x1="225.6" y1="30.54" x2="225.6" y2="81.35"/><line class="cls-18" x1="213.98" y1="30.54" x2="213.98" y2="81.35"/></g><path class="cls-7" d="M205.42,22.05v1.18h1.07v.57h-1.07V26c0,.51.14.8.56.8a1.41,1.41,0,0,0,.43-.06l0,.57a2,2,0,0,1-.66.1,1,1,0,0,1-.81-.32,1.52,1.52,0,0,1-.28-1.07V23.8h-.64v-.57h.64v-1Z" transform="translate(-1.16)"/><path class="cls-7" d="M208.16,22.07a.44.44,0,0,1-.47.46.45.45,0,0,1-.46-.46.45.45,0,0,1,.47-.46A.44.44,0,0,1,208.16,22.07Zm-.83,5.27V23.23h.75v4.11Z" transform="translate(-1.16)"/><path class="cls-7" d="M209.22,26.58a2,2,0,0,0,1,.29c.55,0,.8-.27.8-.61s-.21-.55-.76-.75c-.74-.27-1.09-.68-1.09-1.17a1.26,1.26,0,0,1,1.42-1.2,2,2,0,0,1,1,.25l-.19.54a1.62,1.62,0,0,0-.84-.23c-.44,0-.69.25-.69.56s.25.49.78.69c.72.28,1.08.63,1.08,1.24s-.56,1.24-1.54,1.24a2.33,2.33,0,0,1-1.15-.28Z" transform="translate(-1.16)"/><path class="cls-7" d="M212.58,26.58a2,2,0,0,0,1,.29c.54,0,.8-.27.8-.61s-.22-.55-.77-.75c-.74-.27-1.09-.68-1.09-1.17a1.27,1.27,0,0,1,1.42-1.2,2,2,0,0,1,1,.25l-.18.54a1.62,1.62,0,0,0-.84-.23c-.45,0-.69.25-.69.56s.24.49.78.69c.71.28,1.08.63,1.08,1.24s-.56,1.24-1.54,1.24a2.37,2.37,0,0,1-1.16-.28Z" transform="translate(-1.16)"/><path class="cls-7" d="M219.49,26.22c0,.43,0,.8,0,1.12h-.67l0-.67h0a1.55,1.55,0,0,1-1.36.77c-.64,0-1.42-.36-1.42-1.81v-2.4h.75v2.28c0,.78.24,1.31.92,1.31a1.1,1.1,0,0,0,1-.68,1.23,1.23,0,0,0,.06-.39V23.23h.75Z" transform="translate(-1.16)"/><path class="cls-7" d="M221.15,25.42a1.32,1.32,0,0,0,1.41,1.43,2.68,2.68,0,0,0,1.14-.21l.13.53a3.35,3.35,0,0,1-1.37.26,1.91,1.91,0,0,1-2-2.08,2,2,0,0,1,1.92-2.21,1.74,1.74,0,0,1,1.7,1.93,2.61,2.61,0,0,1,0,.35Zm2.19-.53a1.06,1.06,0,0,0-1-1.22,1.24,1.24,0,0,0-1.15,1.22Z" transform="translate(-1.16)"/><path class="cls-7" d="M227.69,22.05v1.18h1.08v.57h-1.08V26c0,.51.15.8.57.8a1.41,1.41,0,0,0,.43-.06l0,.57a2,2,0,0,1-.66.1,1,1,0,0,1-.81-.32A1.52,1.52,0,0,1,227,26V23.8h-.63v-.57H227v-1Z" transform="translate(-1.16)"/><path class="cls-7" d="M230,23.23l.9,2.43c.09.27.19.59.26.84h0c.07-.25.16-.56.26-.86l.82-2.41H233l-1.13,2.93a6.29,6.29,0,0,1-1.41,2.58,2,2,0,0,1-.91.48l-.19-.63a2,2,0,0,0,.65-.36,2.25,2.25,0,0,0,.63-.84.38.38,0,0,0,.06-.18.76.76,0,0,0-.05-.19l-1.52-3.79Z" transform="translate(-1.16)"/><path class="cls-7" d="M233.69,24.57c0-.53,0-.95,0-1.34h.67l0,.7h0a1.61,1.61,0,0,1,1.46-.79,1.86,1.86,0,0,1,1.74,2.09,2,2,0,0,1-1.87,2.21,1.46,1.46,0,0,1-1.27-.65h0V29h-.74Zm.74,1.1a1.39,1.39,0,0,0,0,.3,1.16,1.16,0,0,0,1.12.88c.79,0,1.25-.65,1.25-1.59s-.43-1.53-1.22-1.53a1.19,1.19,0,0,0-1.13.93,1,1,0,0,0,0,.3Z" transform="translate(-1.16)"/><path class="cls-7" d="M238.94,25.42a1.32,1.32,0,0,0,1.41,1.43,2.68,2.68,0,0,0,1.14-.21l.13.53a3.35,3.35,0,0,1-1.37.26,1.91,1.91,0,0,1-2-2.08,2,2,0,0,1,1.92-2.21,1.74,1.74,0,0,1,1.7,1.93,2.61,2.61,0,0,1,0,.35Zm2.19-.53a1.06,1.06,0,0,0-1-1.22A1.24,1.24,0,0,0,239,24.89Z" transform="translate(-1.16)"/><path class="cls-7" d="M196.07,49.64c.3,0,.63,0,1.13,0h2.39a2.38,2.38,0,0,1,1.88.58,2.21,2.21,0,0,1,.49,1.5,2.67,2.67,0,0,1-.34,1.37l-.57-.19a2.33,2.33,0,0,0,.32-1.21c0-.76-.4-1.32-1.43-1.32h-.46v0a1.46,1.46,0,0,1,.69,1.3,1.85,1.85,0,0,1-2,1.76A2,2,0,0,1,196,51.63a1.37,1.37,0,0,1,.71-1.28v0l-.62,0Zm1.62.78a1.27,1.27,0,0,0-.34,0,1.08,1.08,0,0,0-.79,1c0,.72.61,1.23,1.56,1.23s1.48-.41,1.48-1.22a1.08,1.08,0,0,0-.77-1,1.11,1.11,0,0,0-.4-.06Z" transform="translate(-1.16)"/><path class="cls-7" d="M198.26,48a1.32,1.32,0,0,0,1.43-1.41,2.68,2.68,0,0,0-.21-1.14l.53-.13a3.35,3.35,0,0,1,.26,1.37,1.91,1.91,0,0,1-2.08,2A2,2,0,0,1,196,46.8a1.74,1.74,0,0,1,1.93-1.7,2.25,2.25,0,0,1,.35,0Zm-.53-2.19a1.06,1.06,0,0,0-1.22,1A1.24,1.24,0,0,0,197.73,48Z" transform="translate(-1.16)"/><path class="cls-7" d="M197.18,44.18c-.42,0-.77,0-1.11,0v-.66l.68,0v0a1.51,1.51,0,0,1-.77-1.36c0-.57.34-1.45,1.75-1.45h2.45v.74h-2.37c-.66,0-1.21.25-1.21,1a1.06,1.06,0,0,0,.76,1,1.23,1.23,0,0,0,.35,0h2.47v.75Z" transform="translate(-1.16)"/><path class="cls-7" d="M198.26,39a1.32,1.32,0,0,0,1.43-1.41,2.72,2.72,0,0,0-.21-1.14l.53-.12a3.27,3.27,0,0,1,.26,1.37,1.91,1.91,0,0,1-2.08,2A2,2,0,0,1,196,37.83a1.74,1.74,0,0,1,1.93-1.7l.35,0Zm-.53-2.19a1.07,1.07,0,0,0-1.22,1A1.25,1.25,0,0,0,197.73,39Z" transform="translate(-1.16)"/><path class="cls-7" d="M199.42,35.3a2,2,0,0,0,.3-1c0-.55-.28-.8-.62-.8s-.55.21-.75.76c-.27.74-.67,1.09-1.17,1.09A1.26,1.26,0,0,1,196,34a2.14,2.14,0,0,1,.25-1l.54.19a1.62,1.62,0,0,0-.23.84c0,.44.25.69.56.69s.49-.25.69-.78c.28-.72.63-1.08,1.25-1.08s1.23.56,1.23,1.53a2.37,2.37,0,0,1-.28,1.16Z" transform="translate(-1.16)"/><rect class="cls-4" x="217.02" y="46" width="40.66" height="19.89"/><path class="cls-7" d="M222.49,51.5c0-.44,0-.82,0-1.18h.6l0,.74h0a1.14,1.14,0,0,1,1-.82l.19,0v.65a.82.82,0,0,0-.23,0,1,1,0,0,0-.92.88,1.51,1.51,0,0,0,0,.32v2h-.68Z" transform="translate(-1.16)"/><path class="cls-7" d="M225.34,52.34a1.22,1.22,0,0,0,1.3,1.31,2.45,2.45,0,0,0,1-.2l.12.49a3,3,0,0,1-1.26.24,1.75,1.75,0,0,1-1.85-1.91,1.83,1.83,0,0,1,1.77-2A1.6,1.6,0,0,1,228,52a2,2,0,0,1,0,.32Zm2-.5a1,1,0,0,0-.95-1.11,1.13,1.13,0,0,0-1.05,1.11Z" transform="translate(-1.16)"/><path class="cls-7" d="M232.12,50.32c0,.28,0,.58,0,1v2.19a2.17,2.17,0,0,1-.54,1.73,2,2,0,0,1-1.37.45,2.5,2.5,0,0,1-1.26-.31l.17-.53a2.1,2.1,0,0,0,1.11.3c.7,0,1.22-.37,1.22-1.32v-.42h0a1.34,1.34,0,0,1-1.2.63,1.68,1.68,0,0,1-1.6-1.84,1.8,1.8,0,0,1,1.69-2,1.25,1.25,0,0,1,1.18.65h0l0-.57Zm-.71,1.49a1.06,1.06,0,0,0,0-.31,1,1,0,0,0-1-.72c-.65,0-1.12.55-1.12,1.42s.37,1.36,1.11,1.36a1,1,0,0,0,1-.7,1.57,1.57,0,0,0,0-.37Z" transform="translate(-1.16)"/><path class="cls-7" d="M236.39,53.07c0,.39,0,.73,0,1h-.61l0-.62h0a1.4,1.4,0,0,1-1.24.7c-.6,0-1.31-.32-1.31-1.65V50.32h.69v2.09c0,.72.22,1.2.84,1.2a1,1,0,0,0,.91-.62,1,1,0,0,0,.06-.35V50.32h.69Z" transform="translate(-1.16)"/><path class="cls-7" d="M237.53,48.56h.68V54.1h-.68Z" transform="translate(-1.16)"/><path class="cls-7" d="M241.46,54.1l-.06-.48h0a1.4,1.4,0,0,1-1.16.56,1.07,1.07,0,0,1-1.15-1.08c0-.91.81-1.41,2.27-1.4v-.08a.79.79,0,0,0-.86-.88,1.79,1.79,0,0,0-1,.29l-.16-.46a2.4,2.4,0,0,1,1.24-.33c1.16,0,1.44.79,1.44,1.54v1.41a5.08,5.08,0,0,0,.06.91Zm-.11-1.93c-.74,0-1.59.12-1.59.85a.6.6,0,0,0,.64.66.94.94,0,0,0,.92-.63.83.83,0,0,0,0-.22Z" transform="translate(-1.16)"/><path class="cls-7" d="M243.92,49.24v1.08h1v.53h-1v2c0,.47.13.73.52.73a1.65,1.65,0,0,0,.39,0l0,.51a1.61,1.61,0,0,1-.61.1,1,1,0,0,1-.74-.29,1.38,1.38,0,0,1-.27-1V50.85h-.58v-.53h.58v-.9Z" transform="translate(-1.16)"/><path class="cls-7" d="M249.05,52.18a1.84,1.84,0,0,1-1.88,2,1.79,1.79,0,0,1-1.81-1.94,1.84,1.84,0,0,1,1.87-2A1.79,1.79,0,0,1,249.05,52.18Zm-3,0c0,.83.48,1.45,1.15,1.45s1.14-.62,1.14-1.47c0-.64-.32-1.45-1.13-1.45S246.05,51.5,246.05,52.22Z" transform="translate(-1.16)"/><path class="cls-7" d="M249.91,51.5c0-.44,0-.82,0-1.18h.6l0,.74h0a1.13,1.13,0,0,1,1-.82l.2,0v.65a.86.86,0,0,0-.24,0,1,1,0,0,0-.92.88,2.69,2.69,0,0,0,0,.32v2h-.68Z" transform="translate(-1.16)"/><path class="cls-7" d="M252.91,50.32l.82,2.23c.09.25.18.55.25.78h0c.07-.23.15-.52.24-.79l.75-2.22h.73l-1,2.69a5.73,5.73,0,0,1-1.3,2.37,1.87,1.87,0,0,1-.84.44l-.17-.58a1.73,1.73,0,0,0,.6-.33,2.06,2.06,0,0,0,.58-.77.47.47,0,0,0,0-.16.44.44,0,0,0,0-.18l-1.39-3.48Z" transform="translate(-1.16)"/><path class="cls-7" d="M224.68,60.92c0-.49,0-.88,0-1.24h.62l0,.65h0a1.47,1.47,0,0,1,1.34-.73,1.71,1.71,0,0,1,1.6,1.92,1.79,1.79,0,0,1-1.72,2,1.31,1.31,0,0,1-1.16-.59h0v2h-.67Zm.67,1a1.18,1.18,0,0,0,0,.28,1,1,0,0,0,1,.81c.73,0,1.15-.6,1.15-1.46s-.4-1.41-1.12-1.41a1.1,1.1,0,0,0-1,.85,1.37,1.37,0,0,0-.05.28Z" transform="translate(-1.16)"/><path class="cls-7" d="M232.53,61.54a1.84,1.84,0,0,1-1.88,2,1.79,1.79,0,0,1-1.81-1.94,1.84,1.84,0,0,1,1.87-2A1.79,1.79,0,0,1,232.53,61.54Zm-3,0c0,.83.48,1.45,1.15,1.45s1.15-.62,1.15-1.47c0-.64-.32-1.45-1.13-1.45S229.53,60.86,229.53,61.58Z" transform="translate(-1.16)"/><path class="cls-7" d="M234.22,58.6v1.08h1v.53h-1v2c0,.47.13.73.52.73a1.65,1.65,0,0,0,.39,0l0,.51a1.61,1.61,0,0,1-.61.1,1,1,0,0,1-.74-.29,1.4,1.4,0,0,1-.27-1v-2H233v-.53h.58v-.9Z" transform="translate(-1.16)"/><path class="cls-7" d="M236.31,61.7a1.22,1.22,0,0,0,1.3,1.31,2.41,2.41,0,0,0,1-.2l.12.49a3,3,0,0,1-1.26.24,1.75,1.75,0,0,1-1.85-1.91,1.83,1.83,0,0,1,1.77-2A1.6,1.6,0,0,1,239,61.38a2,2,0,0,1,0,.32Zm2-.5a1,1,0,0,0-.95-1.11,1.14,1.14,0,0,0-1.05,1.11Z" transform="translate(-1.16)"/><path class="cls-7" d="M239.84,60.71c0-.39,0-.71,0-1h.61l0,.63h0a1.39,1.39,0,0,1,1.25-.71c.52,0,1.33.31,1.33,1.6v2.26h-.68V61.28c0-.61-.23-1.11-.88-1.11a1,1,0,0,0-1,1v2.27h-.68Z" transform="translate(-1.16)"/><path class="cls-7" d="M245,58.6v1.08h1v.53h-1v2c0,.47.14.73.52.73a1.82,1.82,0,0,0,.4,0l0,.51a1.61,1.61,0,0,1-.61.1,1,1,0,0,1-.74-.29,1.4,1.4,0,0,1-.27-1v-2h-.58v-.53h.58v-.9Z" transform="translate(-1.16)"/><path class="cls-7" d="M247.48,58.62a.4.4,0,0,1-.43.42.4.4,0,0,1-.42-.42.42.42,0,0,1,.43-.43A.41.41,0,0,1,247.48,58.62Zm-.76,4.84V59.68h.68v3.78Z" transform="translate(-1.16)"/><path class="cls-7" d="M250.63,63.46l0-.48h0a1.42,1.42,0,0,1-1.16.56,1.07,1.07,0,0,1-1.15-1.08c0-.91.81-1.41,2.27-1.4V61a.79.79,0,0,0-.86-.88,1.79,1.79,0,0,0-1,.29l-.16-.46a2.35,2.35,0,0,1,1.24-.33c1.15,0,1.43.79,1.43,1.54v1.41a5,5,0,0,0,.07.91Zm-.1-1.93c-.75,0-1.6.12-1.6.85a.61.61,0,0,0,.65.66,1,1,0,0,0,.91-.63.6.6,0,0,0,0-.22Z" transform="translate(-1.16)"/><path class="cls-7" d="M252.3,57.92H253v5.54h-.69Z" transform="translate(-1.16)"/><rect class="cls-16" x="20.74" y="30.54" width="69.73" height="50.81"/><g class="cls-17"><rect class="cls-18" x="20.74" y="30.54" width="69.73" height="50.81"/><line class="cls-18" x1="20.74" y1="72.88" x2="90.47" y2="72.88"/><line class="cls-18" x1="20.74" y1="64.41" x2="90.47" y2="64.41"/><line class="cls-18" x1="20.74" y1="55.94" x2="90.47" y2="55.94"/><line class="cls-18" x1="20.74" y1="47.47" x2="90.47" y2="47.47"/><line class="cls-18" x1="20.74" y1="39" x2="90.47" y2="39"/><line class="cls-18" x1="78.85" y1="30.54" x2="78.85" y2="81.35"/><line class="cls-18" x1="67.23" y1="30.54" x2="67.23" y2="81.35"/><line class="cls-18" x1="55.61" y1="30.54" x2="55.61" y2="81.35"/><line class="cls-18" x1="43.98" y1="30.54" x2="43.98" y2="81.35"/><line class="cls-18" x1="32.36" y1="30.54" x2="32.36" y2="81.35"/></g><path class="cls-7" d="M23.8,22.05v1.18h1.07v.57H23.8V26c0,.51.14.8.56.8a1.41,1.41,0,0,0,.43-.06l0,.57a2.15,2.15,0,0,1-.67.1,1,1,0,0,1-.8-.32A1.48,1.48,0,0,1,23.07,26V23.8h-.64v-.57h.64v-1Z" transform="translate(-1.16)"/><path class="cls-7" d="M26.54,22.07a.46.46,0,1,1-.92,0,.45.45,0,0,1,.46-.46A.44.44,0,0,1,26.54,22.07Zm-.83,5.27V23.23h.75v4.11Z" transform="translate(-1.16)"/><path class="cls-7" d="M27.6,26.58a2,2,0,0,0,1,.29c.55,0,.8-.27.8-.61s-.21-.55-.76-.75c-.74-.27-1.09-.68-1.09-1.17A1.26,1.26,0,0,1,29,23.14a2,2,0,0,1,1,.25l-.19.54a1.62,1.62,0,0,0-.84-.23c-.44,0-.69.25-.69.56s.25.49.78.69c.72.28,1.08.63,1.08,1.24s-.56,1.24-1.53,1.24a2.37,2.37,0,0,1-1.16-.28Z" transform="translate(-1.16)"/><path class="cls-7" d="M31,26.58a2,2,0,0,0,1,.29c.54,0,.8-.27.8-.61s-.21-.55-.77-.75c-.74-.27-1.08-.68-1.08-1.17a1.26,1.26,0,0,1,1.41-1.2,2,2,0,0,1,1,.25l-.19.54a1.62,1.62,0,0,0-.84-.23c-.45,0-.69.25-.69.56s.24.49.78.69c.71.28,1.08.63,1.08,1.24s-.56,1.24-1.54,1.24a2.3,2.3,0,0,1-1.15-.28Z" transform="translate(-1.16)"/><path class="cls-7" d="M37.87,26.22c0,.43,0,.8,0,1.12h-.67l0-.67h0a1.53,1.53,0,0,1-1.36.77c-.64,0-1.42-.36-1.42-1.81v-2.4h.75v2.28c0,.78.24,1.31.92,1.31a1.1,1.1,0,0,0,1-.68,1.23,1.23,0,0,0,.06-.39V23.23h.75Z" transform="translate(-1.16)"/><path class="cls-7" d="M39.53,25.42a1.32,1.32,0,0,0,1.41,1.43,2.68,2.68,0,0,0,1.14-.21l.13.53a3.35,3.35,0,0,1-1.37.26,1.91,1.91,0,0,1-2-2.08,2,2,0,0,1,1.93-2.21,1.74,1.74,0,0,1,1.7,1.93,2.25,2.25,0,0,1,0,.35Zm2.19-.53a1.06,1.06,0,0,0-1-1.22,1.24,1.24,0,0,0-1.15,1.22Z" transform="translate(-1.16)"/><path class="cls-7" d="M46.08,22.05v1.18h1.07v.57H46.08V26c0,.51.14.8.56.8a1.41,1.41,0,0,0,.43-.06l0,.57a2,2,0,0,1-.66.1,1,1,0,0,1-.81-.32A1.52,1.52,0,0,1,45.34,26V23.8h-.63v-.57h.63v-1Z" transform="translate(-1.16)"/><path class="cls-7" d="M48.34,23.23l.9,2.43c.09.27.19.59.26.84h0c.07-.25.16-.56.26-.86l.82-2.41h.79l-1.12,2.93a6.4,6.4,0,0,1-1.42,2.58,2,2,0,0,1-.91.48l-.19-.63a2,2,0,0,0,.65-.36,2.25,2.25,0,0,0,.63-.84.38.38,0,0,0,.06-.18A.48.48,0,0,0,49,27l-1.52-3.79Z" transform="translate(-1.16)"/><path class="cls-7" d="M52.07,24.57c0-.53,0-.95,0-1.34h.68l0,.7h0a1.61,1.61,0,0,1,1.46-.79A1.86,1.86,0,0,1,56,25.23a2,2,0,0,1-1.87,2.21,1.46,1.46,0,0,1-1.27-.65h0V29h-.74Zm.74,1.1a1.39,1.39,0,0,0,0,.3,1.16,1.16,0,0,0,1.12.88c.79,0,1.25-.65,1.25-1.59s-.43-1.53-1.22-1.53a1.19,1.19,0,0,0-1.13.93,1,1,0,0,0,0,.3Z" transform="translate(-1.16)"/><path class="cls-7" d="M57.32,25.42a1.32,1.32,0,0,0,1.41,1.43,2.68,2.68,0,0,0,1.14-.21l.13.53a3.35,3.35,0,0,1-1.37.26,1.91,1.91,0,0,1-2-2.08,2,2,0,0,1,1.93-2.21,1.74,1.74,0,0,1,1.7,1.93,2.25,2.25,0,0,1,0,.35Zm2.19-.53a1.06,1.06,0,0,0-1-1.22,1.24,1.24,0,0,0-1.15,1.22Z" transform="translate(-1.16)"/><path class="cls-7" d="M15.79,52.38c-.52,0-.95,0-1.34,0v-.67l.71,0v0a1.59,1.59,0,0,1-.8-1.46,1.86,1.86,0,0,1,2.09-1.74,2,2,0,0,1,2.21,1.87A1.43,1.43,0,0,1,18,51.62v0h2.24v.74Zm1.1-.74a3,3,0,0,0,.31,0,1.17,1.17,0,0,0,.87-1.13c0-.79-.64-1.24-1.59-1.24S15,49.67,15,50.46a1.19,1.19,0,0,0,.93,1.13,1,1,0,0,0,.3,0Z" transform="translate(-1.16)"/><path class="cls-7" d="M16.64,47.13a1.32,1.32,0,0,0,1.43-1.41,2.68,2.68,0,0,0-.21-1.14l.53-.13a3.27,3.27,0,0,1,.26,1.37,1.91,1.91,0,0,1-2.07,2,2,2,0,0,1-2.22-1.93,1.74,1.74,0,0,1,1.93-1.7,2.25,2.25,0,0,1,.35,0Zm-.53-2.2a1.08,1.08,0,0,0-1.22,1,1.24,1.24,0,0,0,1.22,1.15Z" transform="translate(-1.16)"/><path class="cls-7" d="M18.56,41l-.51.06v0a1.54,1.54,0,0,1,.61,1.26,1.18,1.18,0,0,1-1.18,1.26c-1,0-1.54-.89-1.53-2.47h-.09a.84.84,0,0,0-.95.93,2,2,0,0,0,.31,1.07l-.5.17A2.55,2.55,0,0,1,14.36,42c0-1.26.86-1.56,1.68-1.56h1.54a5.78,5.78,0,0,0,1-.07Zm-2.1.11c0,.81.13,1.74.93,1.74a.66.66,0,0,0,.71-.71,1,1,0,0,0-.68-1,1.09,1.09,0,0,0-.24,0Z" transform="translate(-1.16)"/><path class="cls-7" d="M16.34,38.45v0c-.15-.1-.33-.25-.47-.36l-1.42-1.21V36l1.69,1.59,2.42-1.81v.91l-2,1.42.43.38h1.54v.74h-6v-.74Z" transform="translate(-1.16)"/><path class="cls-7" d="M17.8,35.3a2,2,0,0,0,.3-1c0-.55-.28-.8-.62-.8s-.55.21-.75.76c-.27.74-.67,1.09-1.17,1.09A1.26,1.26,0,0,1,14.36,34a2.14,2.14,0,0,1,.25-1l.55.19a1.53,1.53,0,0,0-.24.84c0,.44.25.69.56.69s.49-.25.7-.78c.27-.72.62-1.08,1.24-1.08s1.23.56,1.23,1.53a2.37,2.37,0,0,1-.28,1.16Z" transform="translate(-1.16)"/><rect class="cls-4" x="36.1" y="46.99" width="38" height="17.91"/><path class="cls-7" d="M41.45,52.35a1.21,1.21,0,0,0,1.3,1.31,2.47,2.47,0,0,0,1-.19l.12.49a3.08,3.08,0,0,1-1.26.23,1.75,1.75,0,0,1-1.85-1.9,1.83,1.83,0,0,1,1.77-2A1.6,1.6,0,0,1,44.13,52a1.91,1.91,0,0,1,0,.32Zm2-.49a1,1,0,0,0-1-1.11,1.13,1.13,0,0,0-1,1.11Z" transform="translate(-1.16)"/><path class="cls-7" d="M45,51.36c0-.39,0-.71,0-1h.6l0,.63h0a1.39,1.39,0,0,1,1.25-.71c.52,0,1.33.31,1.33,1.6v2.26H47.5V51.94c0-.61-.22-1.11-.87-1.11a1,1,0,0,0-1,1v2.27H45Z" transform="translate(-1.16)"/><path class="cls-7" d="M49.31,48.58H50v2.36h0a1.28,1.28,0,0,1,.49-.49,1.36,1.36,0,0,1,.7-.19c.51,0,1.32.31,1.32,1.61v2.25h-.69V52c0-.61-.22-1.12-.87-1.12a1,1,0,0,0-.92.68.85.85,0,0,0,0,.33v2.28h-.68Z" transform="translate(-1.16)"/><path class="cls-7" d="M55.72,54.12l0-.48h0a1.4,1.4,0,0,1-1.16.56,1.07,1.07,0,0,1-1.15-1.08c0-.91.81-1.41,2.27-1.4v-.08a.79.79,0,0,0-.86-.88,1.87,1.87,0,0,0-1,.28l-.16-.45a2.38,2.38,0,0,1,1.24-.33c1.15,0,1.44.78,1.44,1.54v1.41a5.08,5.08,0,0,0,.06.91Zm-.1-1.93c-.75,0-1.6.12-1.6.85a.61.61,0,0,0,.65.66.94.94,0,0,0,.91-.64.52.52,0,0,0,0-.21Z" transform="translate(-1.16)"/><path class="cls-7" d="M57.39,51.36c0-.39,0-.71,0-1H58L58,51h0a1.37,1.37,0,0,1,1.24-.71c.53,0,1.34.31,1.34,1.6v2.26h-.69V51.94c0-.61-.23-1.11-.87-1.11a1,1,0,0,0-1,1v2.27h-.69Z" transform="translate(-1.16)"/><path class="cls-7" d="M64.41,54a2.58,2.58,0,0,1-1.08.21,1.79,1.79,0,0,1-1.88-1.92,1.93,1.93,0,0,1,2-2,2.37,2.37,0,0,1,1,.2l-.16.53a1.61,1.61,0,0,0-.79-.18,1.42,1.42,0,0,0,0,2.84,1.94,1.94,0,0,0,.85-.19Z" transform="translate(-1.16)"/><path class="cls-7" d="M65.55,52.35a1.21,1.21,0,0,0,1.3,1.31,2.47,2.47,0,0,0,1-.19L68,54a3.08,3.08,0,0,1-1.26.23,1.75,1.75,0,0,1-1.85-1.9,1.83,1.83,0,0,1,1.77-2A1.6,1.6,0,0,1,68.23,52a1.91,1.91,0,0,1,0,.32Zm2-.49a1,1,0,0,0-1-1.11,1.14,1.14,0,0,0-1,1.11Z" transform="translate(-1.16)"/><path class="cls-7" d="M69.08,51.52c0-.44,0-.83,0-1.18h.6l0,.74h0a1.14,1.14,0,0,1,1-.82.55.55,0,0,1,.19,0v.65a.8.8,0,0,0-.23,0,1,1,0,0,0-.92.88,1.66,1.66,0,0,0,0,.32v2h-.68Z" transform="translate(-1.16)"/><path class="cls-7" d="M40.51,58.64a.43.43,0,0,1-.85,0,.42.42,0,0,1,.43-.43A.41.41,0,0,1,40.51,58.64Zm-.77,4.84V59.7h.69v3.78Z" transform="translate(-1.16)"/><path class="cls-7" d="M41.57,60.72c0-.39,0-.71,0-1h.61l0,.63h0a1.39,1.39,0,0,1,1.25-.71c.52,0,1.33.31,1.33,1.6v2.26h-.69V61.3c0-.61-.22-1.11-.87-1.11a1,1,0,0,0-1,1v2.27h-.68Z" transform="translate(-1.16)"/><path class="cls-7" d="M46.69,58.62V59.7h1v.52h-1v2c0,.47.14.73.52.73a1.65,1.65,0,0,0,.39,0l0,.51a1.63,1.63,0,0,1-.61.09,1,1,0,0,1-.74-.28,1.4,1.4,0,0,1-.27-1V60.22h-.58V59.7H46v-.9Z" transform="translate(-1.16)"/><path class="cls-7" d="M48.78,61.71A1.21,1.21,0,0,0,50.08,63a2.47,2.47,0,0,0,1-.19l.12.49a3.08,3.08,0,0,1-1.26.23,1.75,1.75,0,0,1-1.85-1.9,1.83,1.83,0,0,1,1.77-2,1.6,1.6,0,0,1,1.56,1.77,2,2,0,0,1,0,.32Zm2-.49a1,1,0,0,0-.95-1.11,1.14,1.14,0,0,0-1.05,1.11Z" transform="translate(-1.16)"/><path class="cls-7" d="M52.31,60.72c0-.39,0-.71,0-1h.61l0,.63h0a1.39,1.39,0,0,1,1.25-.71c.52,0,1.33.31,1.33,1.6v2.26h-.69V61.3c0-.61-.22-1.11-.87-1.11a1,1,0,0,0-1,1v2.27h-.68Z" transform="translate(-1.16)"/><path class="cls-7" d="M56.54,62.77a1.78,1.78,0,0,0,.91.28c.5,0,.73-.25.73-.56s-.19-.51-.7-.7c-.68-.24-1-.61-1-1.07a1.16,1.16,0,0,1,1.3-1.1,1.92,1.92,0,0,1,.93.23l-.17.5a1.5,1.5,0,0,0-.77-.22c-.41,0-.63.24-.63.52s.22.45.71.64c.66.24,1,.57,1,1.13s-.51,1.13-1.41,1.13a2.24,2.24,0,0,1-1.06-.25Z" transform="translate(-1.16)"/><path class="cls-7" d="M60.49,58.64a.43.43,0,0,1-.85,0,.42.42,0,0,1,.43-.43A.41.41,0,0,1,60.49,58.64Zm-.76,4.84V59.7h.68v3.78Z" transform="translate(-1.16)"/><path class="cls-7" d="M62.38,58.62V59.7h1v.52h-1v2c0,.47.13.73.51.73a1.82,1.82,0,0,0,.4,0l0,.51a1.56,1.56,0,0,1-.61.09,1,1,0,0,1-.74-.28,1.45,1.45,0,0,1-.26-1V60.22h-.59V59.7h.59v-.9Z" transform="translate(-1.16)"/><path class="cls-7" d="M64.9,58.64a.43.43,0,0,1-.85,0,.42.42,0,0,1,.43-.43A.41.41,0,0,1,64.9,58.64Zm-.77,4.84V59.7h.69v3.78Z" transform="translate(-1.16)"/><path class="cls-7" d="M66.34,61.71A1.21,1.21,0,0,0,67.63,63a2.49,2.49,0,0,0,1.05-.19l.12.49a3.12,3.12,0,0,1-1.26.23,1.75,1.75,0,0,1-1.85-1.9,1.83,1.83,0,0,1,1.77-2A1.59,1.59,0,0,1,69,61.39a2.33,2.33,0,0,1,0,.32Zm2-.49a1,1,0,0,0-.95-1.11,1.13,1.13,0,0,0-1.05,1.11Z" transform="translate(-1.16)"/><path class="cls-7" d="M69.77,62.77a1.75,1.75,0,0,0,.91.28c.5,0,.73-.25.73-.56s-.2-.51-.7-.7c-.68-.24-1-.61-1-1.07a1.16,1.16,0,0,1,1.3-1.1,2,2,0,0,1,.93.23l-.17.5a1.5,1.5,0,0,0-.77-.22c-.41,0-.63.24-.63.52s.22.45.71.64c.66.24,1,.57,1,1.13s-.51,1.13-1.41,1.13a2.24,2.24,0,0,1-1.06-.25Z" transform="translate(-1.16)"/><circle class="cls-19" cx="102.53" cy="33.32" r="6.23"/><path class="cls-7" d="M102.84,34.18l-.56,1.69h-.72l1.83-5.39h.84l1.84,5.39h-.74l-.58-1.69Zm1.77-.55-.53-1.55c-.12-.35-.2-.67-.28-1h0c-.08.32-.17.65-.27,1L103,33.63Z" transform="translate(-1.16)"/><circle class="cls-19" cx="166.38" cy="103.82" r="6.23"/><path class="cls-7" d="M166.1,101.05a6.23,6.23,0,0,1,1.27-.11,2.26,2.26,0,0,1,1.48.39,1.14,1.14,0,0,1,.45,1,1.28,1.28,0,0,1-.92,1.18v0a1.39,1.39,0,0,1,1.12,1.35,1.46,1.46,0,0,1-.46,1.08,2.73,2.73,0,0,1-1.86.5,8.65,8.65,0,0,1-1.08-.06Zm.69,2.2h.63c.74,0,1.17-.38,1.17-.9s-.48-.88-1.18-.88a3.29,3.29,0,0,0-.62,0Zm0,2.59a4.47,4.47,0,0,0,.59,0c.72,0,1.38-.26,1.38-1.05s-.63-1-1.39-1h-.58Z" transform="translate(-1.16)"/><circle class="cls-19" cx="27.13" cy="152.58" r="6.23"/><path class="cls-7" d="M30,155a3.48,3.48,0,0,1-1.43.25,2.51,2.51,0,0,1-2.66-2.72,2.68,2.68,0,0,1,2.81-2.83A2.79,2.79,0,0,1,30,150l-.16.56a2.69,2.69,0,0,0-1.09-.22,2,2,0,0,0-2.1,2.22,2,2,0,0,0,2.07,2.17,2.88,2.88,0,0,0,1.13-.22Z" transform="translate(-1.16)"/><circle class="cls-19" cx="88.49" cy="238.1" r="6.23"/><path class="cls-7" d="M87.71,235.33a9.31,9.31,0,0,1,1.48-.11,3.07,3.07,0,0,1,2.18.67,2.47,2.47,0,0,1,.76,1.93,2.88,2.88,0,0,1-.77,2.1,3.35,3.35,0,0,1-2.38.77,11.38,11.38,0,0,1-1.27-.06Zm.7,4.76a3.56,3.56,0,0,0,.7,0,2.07,2.07,0,0,0,2.3-2.28,1.93,1.93,0,0,0-2.19-2.08,3.89,3.89,0,0,0-.81.07Z" transform="translate(-1.16)"/><circle class="cls-19" cx="245.25" cy="205.98" r="6.23"/><path class="cls-7" d="M248,206h-2.1v1.94h2.34v.59h-3v-5.39h2.91v.58h-2.22v1.7H248Z" transform="translate(-1.16)"/><path class="cls-13" d="M42.28,92.92c0,29.61,0,78.83,0,111.47" transform="translate(-1.16)"/><path class="cls-14" d="M42.27,202.66l3.46-2.11.08.12-2.24,5.66c-.44,2-.87,3.94-1.31,5.91q-.65-3-1.3-5.91l-2.24-5.66.06-.12Z" transform="translate(-1.16)"/><path class="cls-13" d="M56,154.41a18.49,18.49,0,0,0-7,3.23C42,163,42.22,171.69,42.28,173" transform="translate(-1.16)"/><path class="cls-13" d="M179.14,107.26v30.66" transform="translate(-1.16)"/><path class="cls-13" d="M165.44,154.41a18.3,18.3,0,0,0,7-3.23c7-5.37,6.79-14.05,6.74-15.34" transform="translate(-1.16)"/><path class="cls-13" d="M192.87,90.34a18.42,18.42,0,0,0-7,3.23c-7,5.37-6.79,14.05-6.73,15.35" transform="translate(-1.16)"/></g></g></svg>